<svg xmlns="http://www.w3.org/2000/svg" xmlns:xlink="http://www.w3.org/1999/xlink" viewBox="0 0 500 500"><defs><style>.cls-1{fill:none;}.cls-2{isolation:isolate;}.cls-3{fill:#ccc;}.cls-4{fill:#27315b;}.cls-5{fill:#f9ad9b;}.cls-6{fill:#fb867d;}.cls-7{fill:#fcb090;}.cls-8{fill:#af3f3f;}.cls-17,.cls-9{fill:#fff;}.cls-10{fill:#dd6868;}.cls-11{opacity:0.2;}.cls-11,.cls-14{mix-blend-mode:multiply;}.cls-12,.cls-14{fill:#d6725f;}.cls-13{fill:#fcd7c6;}.cls-14,.cls-17{opacity:0.3;}.cls-15{fill:#252b4f;}.cls-16{opacity:0.5;}.cls-18{fill:#41507f;}.cls-19{fill:#455996;}.cls-20{fill:#ffe02b;}.cls-21{fill:#f7931e;}.cls-22{clip-path:url(#clip-path);}.cls-23{fill:#27a9e0;}.cls-24{fill:#ffe000;}</style><clipPath id="clip-path"><rect class="cls-1" x="145.77" y="19.08" width="194.27" height="99.87" transform="translate(-5.98 26.32) rotate(-6.13)"/></clipPath></defs><g class="cls-2"><g id="Layer_1" data-name="Layer 1"><ellipse class="cls-3" cx="248.45" cy="449.06" rx="204.02" ry="16.6"/><path class="cls-4" d="M151.48,367.3c-9.23,7.39-17.42,18.34-20.2,23.75-1.46,2.82-13.45,35.91-10.59,36.45-9.65-1.82-25.3-4.12-33.46,3.39-3,2.72-5.35,9.59-3.45,13.5,2,4.1,8.49,3.9,12.29,4.44,6.24.88,12.46.91,18.74,1.35,5.61.39,12.84,2.24,18.19-.25,7.61-3.55,4-10.38,5.23-16.7A130.26,130.26,0,0,1,144,412.75,79.09,79.09,0,0,1,154.49,394c6-8.18,34.85-18.13,22-30.66C169.6,356.61,160.09,360.41,151.48,367.3Z"/><path class="cls-4" d="M359.72,369.74c9.73,6.72,18.68,17.05,21.85,22.24,1.65,2.71,16,34.86,13.17,35.6,9.49-2.5,24.94-5.92,33.62,1,3.13,2.5,6,9.18,4.41,13.22-1.69,4.22-8.19,4.49-11.95,5.3-6.16,1.33-12.36,1.8-18.59,2.69-5.57.8-12.65,3.16-18.17,1.05-7.83-3-4.77-10.06-6.4-16.27a131.8,131.8,0,0,0-7.25-20,78.76,78.76,0,0,0-11.79-18c-6.55-7.72-36.06-15.58-24.12-29C340.88,360.37,350.64,363.48,359.72,369.74Z"/><path class="cls-5" d="M105.69,197S69,198.9,79.43,234.72c0,0-26.63,10.15-10.21,40.24,0,0-7.92,35.86,28.91,53.56,0,0,1.43,57,60,48.77,0,0,13.1,57.19,75.26,28.59,0,0,39.17,31.72,65.64.1,0,0,37.29,13.38,61.23-20.6,0,0,38.77,3.52,42.66-42,0,0,16.1-12.85,10.32-37.18,0,0,17.84-16,3.56-54.73,0,0,1.77-19.08-17.73-32.49,0,0-.11-37.42-37.64-40.37,0,0-16.55-50.94-74.64-28.61,0,0-9.19-16.85-34-6.76,0,0-17.66-13.47-41.58,3.95,0,0-44.55-10.67-60.48,24.25C150.78,171.42,116.93,168.34,105.69,197Z"/><path class="cls-6" d="M105.69,194.67a39.21,39.21,0,0,0-18.79,6.12c-11.93,7.78-13.32,21.74-9.68,34.54.53-1,1.07-1.89,1.6-2.83a29.37,29.37,0,0,0-12.63,9.89c-7.62,10.2-4.48,23.39,1,33.73-.07-.59-.15-1.18-.23-1.77-1.52,7-.91,14.71.71,21.63,3.68,15.67,15.06,27.57,29.26,34.53l-1.14-2a62.56,62.56,0,0,0,8,28,46.06,46.06,0,0,0,17.44,17.73c9.84,5.55,21.48,6.75,32.56,5.8,1.65-.14,3.29-.35,4.92-.58L156,377.9a55.77,55.77,0,0,0,13.35,24.45c14.25,15.41,35.46,16.18,54.36,9.9a110.59,110.59,0,0,0,10.92-4.39l-2.79-.36A72.65,72.65,0,0,0,256,420.1a46.82,46.82,0,0,0,22.05,1.45c9-1.64,16.76-7.09,22.62-13.95l-2.24.59c7.24,2.58,15.58,3.09,23.16,2.46,16.8-1.41,30.95-10.53,40.66-24.11l-2,1.14c7.23.63,15-1.35,21.45-4.45,15.4-7.39,22-23.71,23.51-39.87l-.67,1.62c11.38-9.18,14-26,10.91-39.41-.2.74-.39,1.49-.59,2.24,2.66-2.41,4.56-5.91,6-9.14,4-9,4.48-19.18,3.09-28.83a89,89,0,0,0-2.16-10.46c-.47-1.76-1-3.51-1.59-5.24-.25-.77-1.11-2.12-1.06-2.89a31.24,31.24,0,0,0-.56-7.09c-1.89-11.3-9.12-20.71-18.32-27.19.37.67.75,1.33,1.13,2a48.7,48.7,0,0,0-5.17-20.46c-6.64-13.69-20-20.93-34.77-22.21l2.22,1.69c-3-9.16-9.27-17.77-16.49-24-17.31-14.95-40.65-13.91-61-6.21l2.6,1.06c-7.2-13-24.64-12.54-36.59-7.81l1.78.23c-13.09-9.86-31.85-4.65-43.9,3.94l1.77-.23a71,71,0,0,0-25.45-1c-16.39,2.19-30.51,11-37.62,26.28l2-1.14a54.45,54.45,0,0,0-19.49,2.28,42.06,42.06,0,0,0-27.82,24.95c-1.11,2.75,3.34,3.94,4.43,1.23,6.79-16.8,25.35-25.41,42.88-23.86a2.22,2.22,0,0,0,2-1.14,40.73,40.73,0,0,1,25.49-22.19c8.36-2.58,17.33-2.91,26-2a55,55,0,0,1,6,.92,3.51,3.51,0,0,0,3.19-.84,45.66,45.66,0,0,1,12.49-6.33c8.26-2.67,18.33-2.12,25.61,3,1.3.9,2.65.06,3.94-.42a39,39,0,0,1,8.38-2.13,23.93,23.93,0,0,1,12.5,1.45,18.16,18.16,0,0,1,8.5,7.15,2.3,2.3,0,0,0,2.6,1.06c19.17-7.27,41-8.65,57.23,5.66A53.84,53.84,0,0,1,356,172.14a38.59,38.59,0,0,1,3.27,7.06,2.37,2.37,0,0,0,2.21,1.69c11.34,1,21.75,5.81,28.21,15.41a44.38,44.38,0,0,1,6.91,19.5c.14,1.21-.1,3.22.54,4.32.84,1.44,3.12,2.5,4.38,3.55a42.67,42.67,0,0,1,4,3.87,36.73,36.73,0,0,1,5.79,8.68,33,33,0,0,1,3.28,12.64,18.66,18.66,0,0,1,0,2.48,8.12,8.12,0,0,0,.87,2.93c.84,2.42,1.56,4.88,2.22,7.35,2.87,10.75,3.66,22.44-.09,33.07-1.26,3.59-3.2,7.42-5.89,9.86a2.32,2.32,0,0,0-.59,2.24c2.61,11.54.58,23.8-7.49,32.75a22.42,22.42,0,0,1-2,2c-1.56,1.36-1.18,4.68-1.47,6.58a50,50,0,0,1-5.92,17.5c-6.72,11.62-20.1,18.09-33.35,17.49-1.89-.08-2.63,1.29-3.69,2.73A53,53,0,0,1,346,397a49.05,49.05,0,0,1-21.86,8.81,52,52,0,0,1-24.41-2,2.24,2.24,0,0,0-2.24.59c-5.49,6.43-12.24,11.06-20.59,12.77-6.72,1.37-13.76.32-20.24-1.65a69.44,69.44,0,0,1-15.4-7.06c-1.62-1-3.21-2-4.76-3.12-.42-.3-.85-.61-1.26-.93-.25-.19.32.27-.15-.11a2.43,2.43,0,0,0-2.78-.36c-19,8.65-42.23,12.41-58.47-3.52a50.22,50.22,0,0,1-13.41-23.69,2.35,2.35,0,0,0-2.83-1.61c-11.1,1.51-22.82,1-33-4.23a41.17,41.17,0,0,1-16.78-16.61,57.38,57.38,0,0,1-7.39-25.71,2.29,2.29,0,0,0-1.14-2C87.7,320.86,78.1,312,73.62,299.72a49.15,49.15,0,0,1-2.52-22c.08-.73.08-.8.25-1.75.29-1.57-.37-2.59-1.1-4-2.9-5.67-4.86-12.32-3.79-18.72,1.19-7.07,6.31-12.6,12.51-15.81.37-.19.75-.37,1.13-.54.58-.26-.48.19,0,0a2.34,2.34,0,0,0,1.6-2.83c-3.26-11.45-2.2-23.42,8.71-30.06a36,36,0,0,1,15.33-4.78C108.64,199.1,108.65,194.5,105.69,194.67Z"/><path class="cls-6" d="M76.41,236c-.07,5.09-.58,10.44.85,15.39s5.31,8.32,9.23,11.26c4.58,3.42,11.37,5.81,13.22,11.77.82,2.62-.46,5.28-1.72,7.52-.6,1.07-2.9,4.87-4.51,4-3.11-1.72-5.9,3.05-2.78,4.77,5.89,3.26,10.87-3.25,13.1-8,3-6.38,1.38-12.54-3.69-17.29S88,258.48,84,252.76c-3.27-4.67-2.14-11.48-2.07-16.81,0-3.56-5.47-3.55-5.52,0Z"/><path class="cls-6" d="M104.92,193.74c-8.63,10.55-4.2,27,.63,38.24,5,11.67,15.51,26.24,29.82,25.57,3.54-.16,3.56-5.68,0-5.51-11.86.55-20.08-12.21-24.48-21.57a54.49,54.49,0,0,1-5.08-18.59c-.38-4.7-.12-10.41,3-14.23,2.23-2.73-1.65-6.66-3.9-3.91Z"/><path class="cls-7" d="M147.07,204.68c7.07,8.95,27.63.85,34.15-5.52,6.55-5.75,9.35-13.21,11.49-21.88"/><path class="cls-6" d="M145.44,206.31c7.06,8.34,20.82,4,29,.06,11.71-5.6,17.4-16.33,20.46-28.48.72-2.87-3.71-4.09-4.44-1.22-2.66,10.58-7.13,19.73-17,25.07-6.42,3.45-19,8.14-24.76,1.32-1.92-2.27-5.15,1-3.25,3.25Z"/><path class="cls-7" d="M221.24,168.9c4.55,7.19,3.7,17.65,2.15,25.69-.44,4.92-2.14,8.66-3.83,13-.54,1.86-2.78,8.07-1.68,4.35"/><path class="cls-6" d="M219.26,170.06c4.25,7.13,3.38,16.09,1.91,23.91a63.05,63.05,0,0,1-3.44,12c-.74,1.89-1.14,4.28-2.12,6l4.2.55c.32,1.25,0,1.1.29.06.81-2.85-3.62-4.07-4.44-1.22a4.42,4.42,0,0,0-.28,2.38,2.31,2.31,0,0,0,4.2.55,28.49,28.49,0,0,0,2.2-6.06c.7-2.3,1.78-4.5,2.54-6.78a57.53,57.53,0,0,0,1.61-8c1.5-8.52,1.88-18-2.7-25.7-1.52-2.55-5.5-.24-4,2.32Z"/><path class="cls-7" d="M217.81,210.12c9-23.63,37.11-25.87,51.93-6.15"/><path class="cls-6" d="M220,210.73c3.64-9.28,11.43-16.46,21.55-17.64s20,4,26.17,12c1.78,2.31,5.78,0,4-2.32-7.2-9.38-18.1-15.44-30.14-14.32-12.3,1.14-21.6,9.84-26,21-1.09,2.76,3.36,4,4.43,1.22Z"/><path class="cls-7" d="M264,198c10.83-5.91,21.6-13.66,37.53-14.23,13.48-.48,24,2.82,35.89,8.53"/><path class="cls-6" d="M265.16,200c10.32-5.67,20.21-12,32.15-13.58,13.59-1.77,26.8,2.09,38.95,7.88,2.66,1.27,5-2.69,2.32-4-13-6.21-26.73-10.1-41.27-8.51-12.81,1.4-23.44,8.16-34.47,14.21-2.6,1.43-.28,5.4,2.32,4Z"/><path class="cls-6" d="M354.48,186.51a28.68,28.68,0,0,0-28.85,18,19.89,19.89,0,0,0,.71,15.89c2.91,6,9.25,9.4,15.34,11.23,3.42,1,4.86-4.3,1.46-5.32-4.94-1.48-9.54-4-12-8.69-1.92-3.62-1.48-7.93-.15-11.65,3.43-9.52,13.9-14.64,23.53-13.94,3.56.26,3.53-5.26,0-5.52Z"/><path class="cls-6" d="M366.59,233.32A29.61,29.61,0,0,0,346,241.24c-5.78,5.54-8,13.71-7.54,21.51l4.15-2.38c-9.83-5.23-20-1.85-27.41,5.83-3.1,3.23-4.89,7.66-6.81,11.63-1.62,3.33-3,8,2.28,8.41,3.56.25,3.53-5.27,0-5.52q1.32,3.63,1.71,1.54a20.14,20.14,0,0,1,1.22-2.57c.54-1.11,1.05-2.24,1.6-3.34,1.28-2.52,2.69-5.24,4.82-7.14,5.75-5.12,12.42-8,19.81-4.07,1.74.92,4.28-.2,4.15-2.39-.39-6.58,1.23-12.82,5.93-17.61,4.35-4.45,10.66-6.26,16.73-6.3,3.56,0,3.56-5.55,0-5.52Z"/><path class="cls-6" d="M324.18,263c3.62-10.15,1.44-22.85-7.73-29.26-2.92-2-5.68,2.74-2.78,4.77,7.13,5,7.91,15.41,5.19,23-1.2,3.36,4.13,4.79,5.32,1.46Z"/><path class="cls-6" d="M169.43,230.7c-6.42,5.4-12.05,11.68-15.21,19.55-3.34,8.3-1.47,17.24,3.27,24.56,3.52,5.43,9.13,9.86,14.55,13.26,4.49,2.81,11.08,5.53,15.52,1.23,2.56-2.48-1.34-6.38-3.9-3.9s-8.52-1.84-10.69-3.3a40.52,40.52,0,0,1-11.34-11c-9-13.85,1-27.44,11.7-36.47,2.73-2.3-1.2-6.18-3.9-3.9Z"/><path class="cls-6" d="M155.89,263.34c-8.85,3.22-14.62,12.62-18,20.9-3,7.37-4.79,19.12,4.06,23.26,3.21,1.5,6-3.25,2.79-4.76-6.38-3-3.48-12.06-1.53-17,2.47-6.27,7.49-14.61,14.19-17,3.32-1.21,1.88-6.55-1.47-5.32Z"/><path class="cls-6" d="M111.25,312.93c3.1-10.91,15.69-15.51,26.1-13.86,3.48.56,5-4.76,1.47-5.32-13.39-2.13-28.91,3.68-32.89,17.71-1,3.43,4.35,4.88,5.32,1.47Z"/><path class="cls-6" d="M150.75,336.66a25.59,25.59,0,0,1,18.36-17.54c8.7-2.06,15.53,3.12,20.17,9.89,3.86,5.64,7.06,12,12.31,16.54,5.95,5.14,13.12,5,20,1.83,3.22-1.49.42-6.24-2.79-4.76s-6.77,2.2-10.3.9c-3.05-1.12-5.5-4.1-7.38-6.62-4.35-5.8-7.45-12.62-12.77-17.65C173.29,305,150.56,318,145.43,335.2c-1,3.42,4.31,4.87,5.32,1.46Z"/><path class="cls-6" d="M198.07,373c1.52-10.37,13-16.37,22.74-16.3,12.84.09,22.64,10.53,27.34,21.68,1.36,3.23,6.7,1.81,5.32-1.47-5.77-13.69-16.6-24.54-31.93-25.7-12.06-.91-26.94,7.69-28.79,20.33-.52,3.48,4.8,5,5.32,1.46Z"/><path class="cls-6" d="M265.07,368.18c3.19-7.23,7.9-13.38,14.84-17.33,6.36-3.61,13.82-4.58,21-4.27,14.93.64,29.85,7.19,41.72,16,2.87,2.12,5.61-2.67,2.79-4.77-12.93-9.59-29-16.08-45.19-16.78a44.48,44.48,0,0,0-23.12,5.06c-7.72,4.19-13.33,11.38-16.82,19.31-1.42,3.22,3.33,6,4.76,2.78Z"/><path class="cls-6" d="M300.83,373c6.52-10.36,17-17.52,29.45-17.57,3.56,0,3.56-5.53,0-5.52-14.45.06-26.66,8.3-34.21,20.3-1.91,3,2.87,5.79,4.76,2.79Z"/><path class="cls-6" d="M337.69,318.94c5.16-.93,9.85-4.05,13.89-7.24A70.9,70.9,0,0,0,365,297.48c6.16-8.55,11.89-21.84,3.44-30.84-2.44-2.6-6.34,1.31-3.9,3.9,6.84,7.28-.47,19-5.14,25.3-5.36,7.26-13.91,16.11-23.22,17.78-3.5.62-2,5.94,1.47,5.32Z"/><path class="cls-6" d="M363.15,300.18c11.72,4.12,20.67,13.47,26.36,24.23a116,116,0,0,1,6.39,14.1c1.31,3.56,3.21,8.32,2.23,12.17-.89,3.45,4.43,4.91,5.32,1.46,1.21-4.73-.43-9.9-2-14.36a118.41,118.41,0,0,0-7.2-16.16c-6.31-12.07-16.64-22.19-29.66-26.76-3.37-1.18-4.8,4.15-1.47,5.32Z"/><path class="cls-6" d="M387.53,267.48c5.75-7.68,17.88-16.66,27.69-11.18,3.11,1.73,5.89-3,2.79-4.77-12.79-7.13-27.61,3-35.24,13.16-2.14,2.85,2.66,5.6,4.76,2.79Z"/><path class="cls-8" d="M290.05,310.48c.56.56,1.13,1.2,1.71,1.91,16.84,20.86-15.27,37.13-32.69,36.42-15.28-.62-40-9.11-38.34-28.37.91-10.73,11.94-13.83,21.17-10.64,9.54,3.31,11.5,7.62,22.22,3.58C273.73,309.75,281.54,302.05,290.05,310.48Z"/><path class="cls-9" d="M264.12,313.38c-10.72,4-12.68-.27-22.22-3.58A19.39,19.39,0,0,0,228,310c.12-.06,3.67,3,4.11,3.34a19.38,19.38,0,0,0,5.17,2.37,58.55,58.55,0,0,0,13.23,1.93,130.57,130.57,0,0,0,18.13-.16,57.45,57.45,0,0,0,10-1.83,73.36,73.36,0,0,0,11.77-4.71l-.43-.44C281.54,302.05,273.73,309.75,264.12,313.38Z"/><path class="cls-10" d="M260.24,330.89c-1.45.22-2.89.5-4.33.83-2.06.47-4.25,0-6.33.41-2.8.47-5.53,1.3-8.33,1.78a75.5,75.5,0,0,0-13.67,3.32c8.12,7.57,21.73,11.18,31.49,11.58,10.42.42,26.1-5.23,33.41-14.31-1.13-.39-2.25-.79-3.38-1.17A64,64,0,0,0,260.24,330.89Z"/><g class="cls-11"><path class="cls-12" d="M385,363.63c-7.09.26-16,7.42-22.51.13-3.44,9.82-13.7,16.33-23,20.13-12.12,5-24.69,6.3-37.5,3.2-3.39-.83-6.56-2.58-10.05-2.09s-6.45,3.57-10,4.34a28.27,28.27,0,0,1-18.11-2.61c-3.67-1.77-8.36-2.34-11-5.71s-3.7-7.94-6.48-11.35c-2.62-3.22-6.45-5.75-9.4-8.74,1.23,1.08,2.28,4.73,2.5,6.41a6.22,6.22,0,0,1-3.19,6.14c-5.63,2.88-12.9,3.85-19.14,3.82a50.32,50.32,0,0,1-34.63-14.53A35.79,35.79,0,0,1,172.31,345c-2.86-12.83,10.19-18.46,20.16-21.73,6.13-2,11.77.1,18-2.64,6-2.65,11.24-7.15,16.09-11.53a114.82,114.82,0,0,0,9.25-9.21c6.83-7.74,7.25-19.95,11-29.25,1-2.52-.44-1.67,2.56-3.21,1.49-.77,3.48-.61,5.12-.75a28.22,28.22,0,0,1,7.36.22c4.05.7,3.68,2.2,4.75,5.4a98.67,98.67,0,0,0,4.59,11.78c4,8.42,9.19,17.46,17.49,22.35,11.1,6.53,23,10.22,35.63,7.89,9.83-1.82,34.42-5.51,34.74-19-6.51,18.85-37.6,11.7-52.06,10.93-17.5-.94-32.56-24.69-34.16-41.19-.69-7.13-3.18-10.77-11.11-11.95-6.69-1-13.65,1.9-18.86,5.84-2.67,2-4.61,3.37-5.35,6.06-.41,1.46.29,4.3,0,6.08-.82,5.23-1.76,10-4.32,14.66C223.93,302.5,207.66,311,188.45,310c-10.61-.55-20.77-.18-29.36-7.58a50,50,0,0,1-12.39-16.2c-3.69-7.7-4.33-16.16-7.49-24.06-11.14,1.66-15.3-19.26-15.6-27.19,0-.61-1-1.19-1-1.8-.08-2.15-.75-3.66-.81-5.5-.92-8.55-1.84-17.11-.62-25.74,1.47-10.48,7.92-18.69,13.42-27.78.32-.51.64-1,1-1.48C125.09,175,111.92,181.1,105.69,197c0,0-36.74,1.94-26.26,37.76,0,0-26.63,10.15-10.21,40.24,0,0-7.92,35.86,28.91,53.56,0,0,1.43,57,60,48.77,0,0,13.1,57.19,75.26,28.59,0,0,39.17,31.72,65.64.1,0,0,37.29,13.38,61.23-20.6,0,0,29.25,2.65,39.49-26.49-4,1.61-8.07,3-12.06,4.65A8.19,8.19,0,0,1,385,363.63Z"/></g><path class="cls-13" d="M306.43,154.75c14.31-4,29.53.93,35.92,15,1,2.16,4.15.29,3.17-1.86-7-15.5-24.3-21-40.06-16.66-2.29.64-1.32,4.19,1,3.55Z"/><path class="cls-13" d="M405.93,265.6c5.87,13.34,3.22,29.17-9.52,37.36-2,1.28-.14,4.46,1.86,3.18,14.56-9.37,17.54-27.17,10.84-42.39-.95-2.17-4.12-.3-3.18,1.85Z"/><path class="cls-13" d="M212.93,170.49c4.87,4.07,4.59,14.56,3.07,20.17a1.84,1.84,0,0,0,3.55,1,34.79,34.79,0,0,0,.63-12.29c-.39-4-1.39-8.73-4.65-11.45-1.81-1.51-4.42,1.07-2.6,2.6Z"/><path class="cls-13" d="M281.46,197.84c4.78-2.6,9.41-5,15-4.92,2.37,0,2.37-3.64,0-3.67-6.24-.1-11.5,2.5-16.85,5.42-2.08,1.13-.22,4.31,1.86,3.17Z"/><path class="cls-13" d="M220,151.28c5.61-4.27,13.61-4.77,20.11-2.43,2.24.81,3.19-2.75,1-3.54-7.31-2.64-16.64-2-22.95,2.79-1.86,1.42,0,4.62,1.86,3.18Z"/><path class="cls-13" d="M162.86,168.79c2.62-5.39,7.62-9.83,13.67-10.72,2.34-.35,1.34-3.89-1-3.55-6.88,1-12.88,6.29-15.87,12.42-1,2.12,2.14,4,3.18,1.85Z"/><path class="cls-13" d="M181,156.11h.46a1.87,1.87,0,0,0,1.84-1.84,1.85,1.85,0,0,0-1.84-1.84l-.46,0a1.84,1.84,0,1,0,0,3.67Z"/><path class="cls-13" d="M372.06,377c8.72.42,15.7-5.92,19.08-13.5,1-2.15-2.21-4-3.18-1.86-2.87,6.44-8.4,12-15.9,11.68-2.37-.11-2.36,3.56,0,3.68Z"/><path class="cls-13" d="M392.42,354.65h.46a1.84,1.84,0,1,0,0-3.68l-.46,0a1.84,1.84,0,1,0,0,3.67Z"/><path class="cls-13" d="M405.31,330.7c5-4.6,6.12-11.63,4.95-18.06-.43-2.33-4-1.34-3.55,1,.94,5.16,0,10.8-4,14.47-1.75,1.62.86,4.21,2.6,2.61Z"/><path class="cls-13" d="M326.9,400.71c8.3.09,17.41-3.11,21.48-10.82,1.1-2.1-2.07-4-3.18-1.86-3.47,6.58-11.26,9.08-18.3,9-2.37,0-2.37,3.66,0,3.68Z"/><path class="cls-13" d="M348.07,385.11l.47.44a1.86,1.86,0,0,0,2.6,0,1.84,1.84,0,0,0,0-2.6l-.47-.45a1.84,1.84,0,0,0-2.6,2.61Z"/><path class="cls-13" d="M371.3,189.7c7.51,2,14,8.55,14.49,16.52.15,2.35,3.83,2.37,3.68,0-.62-9.61-8-17.64-17.19-20.07-2.3-.61-3.27,2.94-1,3.55Z"/><path class="cls-13" d="M365.29,188.16a1.84,1.84,0,0,0,0-3.68,1.84,1.84,0,0,0,0,3.68Z"/><path class="cls-14" d="M267.48,197.81c-.52.69-3.24-1.68-3.49-1-9.16-8.74-33.39-9.45-40.89,3.66.27-4.29,2.78-8.25,3.14-12.54.42-5.05-1.4-10.44-2.64-15.27,3.48,1.15,7.62,7.63,9.18,11-.24-.51,17.84-2.61,19.32-2.63,10.71-.17,18.4,1.49,25.48,9.81C274.52,190.94,269.61,195,267.48,197.81Z"/><path class="cls-14" d="M379.34,295.77s24.52,16.61,21.37,44.33c0,0-1.3-23.42-25.25-36.83l-3.25-.8Z"/><path class="cls-13" d="M208.73,363.78c4.63-3.25,10.62-3.72,16-2.28,2.29.62,3.27-2.93,1-3.54-6.24-1.68-13.43-1.14-18.81,2.65-1.93,1.35-.09,4.54,1.85,3.17Z"/><path class="cls-13" d="M229,362.75l0,.46a1.84,1.84,0,1,0,3.67,0v-.46a1.87,1.87,0,0,0-1.84-1.84,1.85,1.85,0,0,0-1.84,1.84Z"/><path class="cls-13" d="M270.65,365.07c2.49-4.79,6.38-9.36,11.84-10.66,2.3-.55,1.32-4.1-1-3.55-6.35,1.51-11.12,6.74-14,12.35-1.09,2.1,2.08,4,3.17,1.86Z"/><path class="cls-13" d="M288.84,352.85l.46,0a1.84,1.84,0,0,0,0-3.68l-.46,0a1.84,1.84,0,1,0,0,3.68Z"/><path class="cls-13" d="M107.45,346.43c2.34,16.56,18.33,27.15,34,28.72,2.36.24,2.34-3.44,0-3.68-14.24-1.42-28.39-11.14-30.49-26-.33-2.34-3.88-1.34-3.55,1Z"/><path class="cls-13" d="M148.38,374.91a2.51,2.51,0,0,0,1.7-.62,2.08,2.08,0,0,0,.58-1.7,1.84,1.84,0,1,0-3.67,0,1.61,1.61,0,0,1,0,.31c0-.16.05-.33.07-.49v0c.06-.15.12-.29.19-.44q-.19.44.57-.57l.44-.18-.08,0,.49-.07-.27,0a1.84,1.84,0,1,0,0,3.68Z"/><path class="cls-13" d="M167.65,386.18l.46,0a1.84,1.84,0,0,0,0-3.68l-.46,0a1.84,1.84,0,1,0,0,3.68Z"/><path class="cls-13" d="M170.92,392.45a28.91,28.91,0,0,0,13,13.11c5.89,2.84,12.65,3.22,19.07,2.82,2.36-.15,2.37-3.83,0-3.68-5.54.35-11,.06-16.27-1.91-5.73-2.16-9.81-6.9-12.58-12.19-1.1-2.11-4.28-.25-3.18,1.85Z"/><path class="cls-13" d="M260.66,413.84c5,3.73,12.07,3.27,17.55,1,2.16-.89,1.21-4.45-1-3.55-4.67,1.94-10.45,2.59-14.71-.61-1.9-1.43-3.73,1.77-1.86,3.17Z"/><path class="cls-14" d="M146.47,204.28s32-6.2,42-22.21C188.46,182.07,179.2,218.75,146.47,204.28Z"/><path class="cls-15" d="M170.39,223.76a4.8,4.8,0,0,0-.25.81c-1.33,5.9,6.43,7.36,12.19,8.65,6.74,1.5,12.49,2.93,18.45,6.05,13.8,7.23,10-8.52,3.2-13.15C197.93,222,173.83,215.08,170.39,223.76Z"/><path class="cls-15" d="M349.29,222.83a3.77,3.77,0,0,1,.15.7c.62,5-7.26,5.48-13.14,6-6.87.65-12.75,1.32-19,3.36-14.57,4.74-8.91-7.89-1.61-11.11C322.16,219,346.91,215.39,349.29,222.83Z"/><path class="cls-15" d="M233.85,268.6a50.11,50.11,0,0,1-51.07,51.47c-13.62-.26-26.43-6.63-35.52-16.62-9.34-10.24-13.43-24.2-12.29-37.87,2.16-25.85,25.49-45.11,50.89-44.61,25.8.51,46.88,22.15,48,47.63.23,5.24,8.38,5.26,8.15,0A58.42,58.42,0,0,0,189.27,213c-28.7-2.85-55.52,17.73-61.45,45.64-6.06,28.56,11,57.16,38.25,66.62s58.28-4.35,70.48-30.22A58.11,58.11,0,0,0,242,268.6C241.86,263.36,233.71,263.34,233.85,268.6Z"/><g class="cls-16"><path class="cls-9" d="M137.74,278.41c-1-27.88,20.43-51.29,47.87-52.27a49.53,49.53,0,0,1,42.91,22.09,49.7,49.7,0,0,0-46.11-27.58c-27.44,1-48.88,24.39-47.88,52.27a50.75,50.75,0,0,0,8.6,26.62A50.93,50.93,0,0,1,137.74,278.41Z"/></g><path class="cls-15" d="M379.76,263.37a50.13,50.13,0,0,1-51.08,51.47c-13.62-.27-26.42-6.63-35.52-16.62-9.34-10.24-13.43-24.2-12.29-37.87,2.16-25.85,25.5-45.11,50.89-44.61,25.8.51,46.88,22.15,48,47.63.23,5.24,8.38,5.26,8.15,0a58.44,58.44,0,0,0-52.74-55.57c-28.69-2.85-55.52,17.73-61.44,45.64C267.67,282,284.67,310.6,312,320.06s58.28-4.35,70.49-30.22a58.37,58.37,0,0,0,5.45-26.47C387.76,258.13,379.61,258.11,379.76,263.37Z"/><path class="cls-15" d="M241.86,269.68c-.8,1.94-.1.28.13-.18a27.36,27.36,0,0,1,1.5-2.57,20.52,20.52,0,0,1,5.28-5.62c8.32-5.81,18.18-.22,25.12,5.64,4,3.37,9.79-2.36,5.77-5.76-9.51-8-22.32-14.51-34.22-7.43A29,29,0,0,0,234,267.52c-.85,2.05.91,4.48,2.85,5,2.34.65,4.16-.8,5-2.85Z"/><g class="cls-16"><path class="cls-9" d="M283.76,272.5c-1-27.89,20.32-51.28,47.62-52.26a49.19,49.19,0,0,1,42.67,22.09,49.38,49.38,0,0,0-45.86-27.58c-27.3,1-48.62,24.37-47.62,52.26a51.19,51.19,0,0,0,8.56,26.62A51.38,51.38,0,0,1,283.76,272.5Z"/></g><path class="cls-9" d="M213.41,291.87c13.65-23.27-4.91-56.08-33.27-53.93-26.07,2-35.81,37.42-20.41,55.66C173.54,310,201.6,312,213.41,291.87Z"/><path class="cls-9" d="M361.89,286c13.22-21.79-4.69-52.49-32.09-50.44-25.19,1.88-34.65,35.06-19.79,52.12C323.34,303,350.46,304.84,361.89,286Z"/><path class="cls-15" d="M213,281a21,21,0,0,0,4-11.44c.28-11.25-6.52-21.34-17.48-24.47-18.93-5.42-38.93,12.47-27.87,31.47a30.86,30.86,0,0,0,20.52,14.16C200.32,292.06,208.35,287.6,213,281Z"/><path class="cls-15" d="M357.24,274.6a21,21,0,0,0,4-11.44c.28-11.25-6.52-21.34-17.48-24.47-18.93-5.42-38.93,12.47-27.87,31.47a30.88,30.88,0,0,0,20.52,14.16C344.59,285.64,352.63,281.18,357.24,274.6Z"/><path class="cls-15" d="M136.84,247.62A146.59,146.59,0,0,0,111,225.83C99.09,218,80.36,211,71.79,227.17,69,232.39,76.93,237,79.7,231.8c1.36-2.56,2.42-3.79,4.77-4.94-.84.41.68-.19.87-.25s.54-.14.82-.19c1.34-.3-.92.06.47-.08a17.79,17.79,0,0,1,2.19,0,6.76,6.76,0,0,1,1.53.17c6.59,1.13,12.38,4.75,18,8.57a137,137,0,0,1,22,19c4.07,4.31,10.54-2.18,6.49-6.48Z"/><path class="cls-15" d="M386.61,256.78A134.3,134.3,0,0,1,397.55,237a44.78,44.78,0,0,1,4.18-5.45,28.42,28.42,0,0,1,2.52-2.51c.2-.18.41-.36.63-.53-.41.3-.41.31,0,0a12.9,12.9,0,0,1,1.24-.77c.21-.12,1.27-.55.13-.1a6.28,6.28,0,0,1,1.2-.33c-1.66.33,1,.23-.69,0,.37.06,1.44.58.29,0,1.1.53-.18-.28.4.24.85.77.08-.06.52.56a11.78,11.78,0,0,1,1.53,3c2,5.5,10.88,3.13,8.83-2.44-2.16-5.88-6.06-11.29-13-10.27-5.52.82-9.79,6.06-13,10.19a118.46,118.46,0,0,0-13.66,23.56c-1,2.27-.68,4.91,1.65,6.27,2,1.16,5.24.63,6.27-1.65Z"/><path class="cls-9" d="M166.77,283.29c2.38,12.4,26.49,3.59,20.78-6.15C183.43,270.1,164.92,273.65,166.77,283.29Z"/><path class="cls-9" d="M340.41,270.59c-3.88,12,21.49,15.9,21.17,4.61C361.35,267.05,343.42,261.26,340.41,270.59Z"/><path class="cls-17" d="M169.73,275c19.12,7.85,73.09-39.27,41.75-42.25C193,231,155.7,269.27,169.73,275Z"/><path class="cls-17" d="M309.78,269.2c19.13,7.85,73.09-39.27,41.75-42.26C333.08,225.18,295.75,263.44,309.78,269.2Z"/><path class="cls-12" d="M252.84,143.22s14.53,46.11,7.8,97.88c0,0,16.1-30,2.48-101.92Z"/><path class="cls-4" d="M461.22,215.07c.38,3.71-.16,7.36,0,11.13a101.07,101.07,0,0,1,0,14,99.37,99.37,0,0,1-6.61,27.63c-6.27,16.08-17.13,33.11-35.19,37-12.31,2.66-21.29-13.28-8.52-19.69a55.78,55.78,0,0,0,19.46-16.27c11.39-15,10.82-38.34,6.16-55.44-9.77-2.84-16.11-13.56-17.76-23.07s-1.35-21.61,7.83-27.81c3.79-2.57,8.38-5.59,12.81-6.82,3.89-1.07,7.83-2.6,11.75-3.46,9.44-2.06,20.69-2.37,25.34,7.75,1,2.18.49,4.46,1.2,6.53.92,2.7,3.28,4.43,3.77,7.72.41,2.73,1.12,6.26.87,9-.12,1.35-1,2.44-1.18,3.74-.18,1.71,0,1.67.69,3.44,5.51,14-9.87,20.07-20.84,23C461.1,214,461.17,214.53,461.22,215.07Z"/><path class="cls-4" d="M418.52,168.33c-.78-9.05-4.37-15.54-6.39-24-1.73-7.23,5.67-12.09,12.49-10.72C436.4,136,440.2,153.19,440.56,163c.25,6.92-2.57,16.19-9.37,19.34C419.79,187.66,419.19,176.19,418.52,168.33Z"/><path class="cls-18" d="M454.56,158.08c-6.25.56-12.62,7.18-11.78,13.7.77,6,9,7.58,13.8,6.77l-.63-2.29c-5,2-8.82,7.85-6.22,13.26s9,4.54,13.93,4.1l-.6-2.21c-3.57,2.26-9.34,5.68-6,10.64,2.46,3.64,8.71,2.13,11.74.21,1.29-.81.1-2.86-1.2-2a9.44,9.44,0,0,1-7.34,1.32c-2.87-.79-1.63-3.93-.14-5.34a26,26,0,0,1,4.14-2.74c.93-.59.65-2.32-.6-2.21-3.15.28-6.74.91-9.71-.48-5.71-2.66-1.47-10.57,2.63-12.22a1.19,1.19,0,0,0-.63-2.29c-3.58.61-9.15-.38-10.68-4.18-2-5,4.87-11.23,9.29-11.63,1.51-.14,1.53-2.51,0-2.37Z"/><path class="cls-4" d="M35.53,230.33c-.11,3.73.68,7.33.75,11.1a100.76,100.76,0,0,0,1,14,98.56,98.56,0,0,0,8.58,27.09c7.4,15.6,19.45,31.8,37.74,34.41,12.47,1.77,20.29-14.77,7.09-20.26a55.77,55.77,0,0,1-20.57-14.83C57.73,267.71,56.62,244.36,60.05,227c9.55-3.54,15.1-14.68,16.06-24.29s-.2-21.65-9.8-27.18c-4-2.29-8.75-5-13.27-5.88-3.95-.79-8-2-12-2.61-9.57-1.38-20.81-.88-24.72,9.54-.84,2.25-.17,4.49-.73,6.61-.72,2.75-3,4.65-3.21,8-.21,2.75-.66,6.32-.22,9,.21,1.34,1.21,2.36,1.45,3.65.3,1.69.12,1.67-.45,3.48-4.5,14.31,11.28,19.31,22.43,21.4C35.58,229.25,35.54,229.79,35.53,230.33Z"/><path class="cls-4" d="M74.77,180.65c.13-9.08,3.25-15.81,4.66-24.37,1.21-7.34-6.52-11.66-13.23-9.8-11.57,3.2-14.14,20.63-13.79,30.48.24,6.91,3.72,16,10.73,18.61C74.89,200,74.66,188.54,74.77,180.65Z"/><path class="cls-18" d="M38.17,175.38c4.88.09,11.19,5.55,10.21,10.84-.78,4.14-7.23,5.33-10.61,5-1.38-.14-1.53,1.94-.31,2.33,4.38,1.4,8,7.14,4.52,11.28-2.28,2.67-7.41,2-10.51,1.91a1.19,1.19,0,0,0-.6,2.21c2.27,1.22,8.46,3.7,5.61,7.17-1.76,2.15-6.29,1-8.3-.11-1.35-.72-2.55,1.33-1.2,2.05,3.09,1.66,9.53,2.86,11.72-.94,3-5.21-2.84-8.19-6.63-10.22l-.6,2.21c4.75.08,10.88.51,13.42-4.42,2.86-5.55-1.53-11.75-6.8-13.43-.11.78-.21,1.55-.32,2.33,4.72.46,12.72-1.86,13-7.67.37-6.53-6.34-12.8-12.65-12.92a1.19,1.19,0,0,0,0,2.38Z"/><path class="cls-19" d="M443,281.77c6.31-6.08,10.71-14.82,10.17-23.73-.18-2.94-4.78-3-4.6,0,.47,7.76-3.32,15.18-8.82,20.47-2.14,2.06,1.12,5.31,3.25,3.26Z"/><path class="cls-19" d="M451.46,255.17h.39a2.3,2.3,0,0,0,0-4.6l-.39,0a2.3,2.3,0,1,0,0,4.59Z"/><path class="cls-20" d="M51.48,88.86s22.63-.17,22.13-48.52c0,0,.61,45.79,22,47.82,0,0-20.72,6.78-21.31,46.72C74.34,134.88,75.47,92.42,51.48,88.86Z"/><path class="cls-21" d="M51.48,90.86c4.83-.07,9.52-3.35,12.67-6.72C74.63,72.91,75.7,54.79,75.6,40.34h-4a108.57,108.57,0,0,0,3.27,24.54c2.68,10.76,8.26,23.88,20.77,25.28-.18-1.31-.36-2.62-.53-3.92-4.53,1.5-8.43,5.26-11.32,8.89-8.81,11.08-11.19,26-11.45,39.75,0,2.58,3.93,2.57,4,0,.42-16.93-4-44.62-24.33-47.94-2.51-.42-3.59,3.43-1.06,3.85,11.7,1.91,16.78,13.41,19.23,23.78a80.23,80.23,0,0,1,2.17,20.31h4c.24-12.68,2.28-26.59,10.29-36.92a28,28,0,0,1,6.67-6.32,19.43,19.43,0,0,1,2.3-1.31c.75-.36-.1,0,.58-.24a2,2,0,0,0-.53-3.93c-11-1.23-15.22-15-17.34-24.06A102.77,102.77,0,0,1,75.6,40.34c0-2.57-4-2.57-4,0,.09,13.46-.69,30.37-10.29,41a18.45,18.45,0,0,1-6.94,4.87,13.8,13.8,0,0,1-2.37.63c-.13,0,.13,0-.53.05C48.91,86.9,48.91,90.89,51.48,90.86Z"/><path class="cls-20" d="M392.72,75.44s22.63-.17,22.12-48.52c0,0,.62,45.79,22,47.82,0,0-20.72,6.78-21.3,46.72C415.58,121.46,416.71,79,392.72,75.44Z"/><path class="cls-21" d="M392.72,77.44c4.83-.07,9.52-3.35,12.66-6.72,10.49-11.23,11.56-29.35,11.46-43.8h-4a109.12,109.12,0,0,0,3.26,24.54c2.69,10.76,8.27,23.88,20.77,25.28-.17-1.31-.35-2.62-.53-3.92-4.52,1.5-8.42,5.26-11.31,8.89-8.82,11.08-11.19,26-11.45,39.75-.06,2.58,3.92,2.57,4,0,.42-16.93-4-44.62-24.33-47.94-2.52-.42-3.6,3.43-1.06,3.85,11.7,1.91,16.77,13.41,19.23,23.78a80.69,80.69,0,0,1,2.17,20.31h4c.24-12.68,2.28-26.59,10.28-36.92a28.24,28.24,0,0,1,6.68-6.32,19.43,19.43,0,0,1,2.3-1.31c.75-.36-.1,0,.58-.24a2,2,0,0,0-.54-3.93c-11-1.23-15.21-15-17.33-24.06a102.77,102.77,0,0,1-2.71-21.76c0-2.57-4-2.57-4,0,.09,13.46-.69,30.37-10.29,41a18.53,18.53,0,0,1-6.94,4.87,14,14,0,0,1-2.37.63c-.13,0,.12,0-.53,0C390.15,73.48,390.14,77.47,392.72,77.44Z"/><g id="Artwork_2" data-name="Artwork 2"><g class="cls-22"><g class="cls-22"><path class="cls-23" d="M167.47,48.69c-.15,2.13-1.26,5.55-6.56,6.41a32.94,32.94,0,0,1,6.56-6.41"/><path class="cls-23" d="M206.5,82.54c-6.36-14.13-22.34-.87-22.34-.87A21.15,21.15,0,0,1,192.32,75a7.4,7.4,0,0,1-3.9-4.22c-9,3.28-10.25-2.24-13.84-8.84-1.85-3.39-3.93-4.09-5.71-3.9-1.6,3.33,4.75,11.4-.48,14,3.35-3.9-1.73-9.83-1.76-12.92a5,5,0,0,0-1.52.38c-8.13,7.27.36,16.56.71,16.93-7.24-3.62-10.45,3.69-11,5.27a32.44,32.44,0,0,0,6.57,14c3-1.52,6.71-5.73-2.17-17A47,47,0,0,1,164,83.54c3.5,5.63,3.23,12.14-1.82,13a32.84,32.84,0,0,0,16.18,10.14,10.29,10.29,0,0,1-.06-1.58,4.78,4.78,0,0,0,0-.74c-5,.56-10.21-4.32-9.11-12.56,0,.33,1.86,16.67,14.74,8.55,0,0-2.94,3.24-4,3.61a5.05,5.05,0,0,1-.55.18c0,.29.09.62.12,1a13.58,13.58,0,0,0,.33,1.87,32.83,32.83,0,0,0,10.51.58l2.94-.32a8.41,8.41,0,0,1-3.57-4.87c-1.72-6.39-.17-10.68,8.9-11.71s8.57-6.37,7.91-8.17M180.15,86.8c.16,4-2.18,7-7.47,5.84,0,0,13.08-1.67.35-17.78a46.73,46.73,0,0,1,4.79,4.92,15.67,15.67,0,0,1,2.23,5.84c5.42,3,14.8-5.77,21.57-.68-9.3-3.51-17.67,6.69-21.47,1.86"/><path class="cls-23" d="M216.74,39l-8.17.88c5.9,2.87,9.21,9.79,4.77,15.88.08-.44,3.83-20-16.2-13.45,6.4,3.51,10.14,10.77,4.53,16.17.19-.45,7.18-17.71-18.4-15.86l.09,0h0a33.42,33.42,0,0,0-6.62,1.41c.88,2.52.62,5.3-2.19,8,.26-.33,3-3.65.93-7.52a33,33,0,0,0-7.33,3.84c3,6.09-3.94,8.6-9.1,9.62a32.53,32.53,0,0,0-4.84,19.43c1.73-3.35,6.69-4.35,6.69-4.35-1.63-2.48-3.1-10.45,2.42-14.11a9.42,9.42,0,0,1,3.7-1.12c3.64-2.35,7.41-.19,10.22,5.88,3.82,8.29,8.74,6.14,10.24,5,11.16-10.24-5.43-21-6.18-21.47C201.22,54.33,190,70.36,190,70.36a7.55,7.55,0,0,0,5,3.82c8.16-1.4,14.08,6.5,14.08,6.5,4.67-.52,6.67-6.37,6.67-6.37.35,8.07-6.84,8-6.84,8,.28,9.58-5.35,9-12.75,10.35s-5.4,6.74-5.33,8.23a9.38,9.38,0,0,0,6.9,5.89l8.58-.92c.46-.16.76-.3.82-.32a3.19,3.19,0,0,1-.26.26l5.89-.63c-.57-3.72-3.74-7.75-15.2-6.87,0,0,3.8-2,5.28-1.91a13,13,0,0,1,5.42,1.47c5.36-4.17,13.87-4,14.94,3.11,0,0-5.46-8.94-13.36-2.13a10,10,0,0,1,4.3,6.18l9.58-1-2.1-19.56-5.54.62L220.2,71.2ZM217.66,66a6.05,6.05,0,0,0-6-6.29,6.92,6.92,0,0,1-.29,1.65,9.85,9.85,0,0,1-5.79,6.34c2.53.89,5.66,2.85,4.16,6.93,0-.33.13-6.42-7-6.3v0a7.67,7.67,0,0,1-7.19-4.18c.47.34,13.54,9.9,14.6-8.08a3.52,3.52,0,0,1,1.51,2.46c2.26.47,8,2.2,6.08,7.49"/><path class="cls-23" d="M328.48,66.76A30.33,30.33,0,0,1,326.79,74l-1.54,3.46-.72,1.29a29.63,29.63,0,0,1-11.76,11.18l-.62.33-2.83,1.21a29.69,29.69,0,0,1-7.14,1.68l-31.44,3.38-.37-3.42L299.88,90A29.69,29.69,0,0,0,307,88.27l2.84-1.22.61-.32a29.6,29.6,0,0,0,11.76-11.19l.73-1.29,1.53-3.45a29.51,29.51,0,0,0,1.69-7.25,37.12,37.12,0,0,0-.15-7.4,29.35,29.35,0,0,0-4-11.1l.16.17a29.49,29.49,0,0,1,6.15,14.14,37.12,37.12,0,0,1,.15,7.4"/><polygon class="cls-24" points="261.64 59.77 258.08 71.74 243.98 119.13 242.97 76.17 228.96 77.73 224.2 78.27 227.74 66.38 241.86 18.91 242.88 61.86 256.85 60.3 261.64 59.77"/><path class="cls-23" d="M224.6,84.11,227,106.68l-36.38,3.9a35.81,35.81,0,0,1-8.9-.16l-3.43-.65-.95-.21v0A35.72,35.72,0,0,1,160.6,99.3L159.42,98,156.8,94.4a37.28,37.28,0,0,1-3.89-8.16,43.85,43.85,0,0,1-1.71-8.78,35.31,35.31,0,0,1,3.69-18.35l3.65-5.84a75.48,75.48,0,0,1,5.78-6.05l2-1.42,4.55-2.7c.67-.33,2-1.07,2-1.07l4-1.37s4.08-.88,6.14-1.1l36.38-3.91,3,28.12,3.7-12.46-2.27-21.18-41.37,4.44a40.73,40.73,0,0,0,8.7,81l41.36-4.44-1.7-15.81-.1-1-1.16-10.76Z"/><path class="cls-23" d="M294.64,22.53,253.27,27l3,27.51,5-.55L258.8,31.42l36.37-3.91c2.07-.22,6.24-.21,6.24-.21l4.2.48s1.45.44,2.17.63l5,1.68,2.29.95A74.72,74.72,0,0,1,322,35.72l4.81,4.93a35.38,35.38,0,0,1,7.5,17.16,43.48,43.48,0,0,1,.18,8.94,36.38,36.38,0,0,1-2.07,8.8l-1.79,4-.87,1.54a35.65,35.65,0,0,1-14.21,13.53v0l-.87.41-3.22,1.37a36.13,36.13,0,0,1-8.67,2l-36.38,3.91-3-28.1L259.7,86.82l.46,4.35.12,1L262,108l41.37-4.44a40.73,40.73,0,1,0-8.7-81"/><path class="cls-9" d="M331.24,58.21a32.59,32.59,0,0,0-6.76-15.51L319.9,38a67.64,67.64,0,0,0-6.23-4.2l-2-.83-4.78-1.6c-.6-.15-1.5-.42-1.93-.55l-3.76-.44c-1.23,0-4.23,0-5.72.2l-33.28,3.58,2.09,19.4,5.46-.62L265.7,66.64l.69,6.38h0l2.79,26,33.28-3.57a32.58,32.58,0,0,0,7.86-1.84l3.09-1.32.66-.3.05-.07a32.58,32.58,0,0,0,13-12.36l.78-1.37,1.69-3.8a33.29,33.29,0,0,0,1.86-8,41.31,41.31,0,0,0-.17-8.2m-2.76,8.55A30.33,30.33,0,0,1,326.79,74l-1.54,3.46-.72,1.29a29.63,29.63,0,0,1-11.76,11.18l-.62.33-2.83,1.21a29.69,29.69,0,0,1-7.14,1.68l-31.44,3.38-.37-3.42L299.88,90A29.69,29.69,0,0,0,307,88.27l2.84-1.22.61-.32a29.6,29.6,0,0,0,11.76-11.19l.73-1.29,1.53-3.45a29.51,29.51,0,0,0,1.69-7.25,37.12,37.12,0,0,0-.15-7.4,29.35,29.35,0,0,0-4-11.1l.16.17a29.49,29.49,0,0,1,6.15,14.14,37.12,37.12,0,0,1,.15,7.4"/></g></g></g></g></g></svg>