<svg xmlns="http://www.w3.org/2000/svg" xmlns:xlink="http://www.w3.org/1999/xlink" viewBox="0 0 500 500"><defs><style>.cls-1{fill:none;}.cls-2{isolation:isolate;}.cls-3{fill:#dfdfef;}.cls-4{fill:#c8c8e2;}.cls-5{fill:#263042;}.cls-15,.cls-6{fill:#333669;}.cls-7{fill:#cf6a79;}.cls-8{fill:#545681;}.cls-9{fill:#ffe0e0;}.cls-10,.cls-14{fill:#e09bb3;}.cls-11{fill:#e4b7c7;}.cls-12{fill:#cf7e9a;}.cls-13{fill:#fff;}.cls-14,.cls-15{mix-blend-mode:darken;}.cls-16{clip-path:url(#clip-path);}.cls-17{fill:#27a9e0;}.cls-18{fill:#ffe000;}</style><clipPath id="clip-path"><rect class="cls-1" x="264.06" y="-8.6" width="74.55" height="145" transform="translate(192.21 351.96) rotate(-81.22)"/></clipPath></defs><g class="cls-2"><g id="Layer_1" data-name="Layer 1"><ellipse class="cls-3" cx="291.3" cy="483.51" rx="11.34" ry="100.64" transform="translate(-192.61 774.13) rotate(-89.92)"/><path class="cls-4" d="M292.55,496h-1.27c-26.91,0-52.22-1.25-71.26-3.43-30.39-3.46-30.38-7.63-30.38-9.2s0-5.7,30-9.08c18.76-2.11,43.77-3.27,70.42-3.27h1.26c26.91,0,52.22,1.25,71.26,3.42C393,477.91,393,482.08,393,483.65s0,5.7-30,9.07C344.2,494.84,319.19,496,292.55,496Zm-2.5-22.68c-26.51,0-51.39,1.16-70.07,3.25-27.83,3.12-28.3,6.76-28.3,6.8s.46,3.72,28.7,6.92c19,2.16,44.14,3.36,70.91,3.4h1.26c26.5,0,51.38-1.15,70.06-3.25,27.84-3.12,28.3-6.76,28.31-6.79s-.47-3.72-28.7-6.93c-19-2.15-44.14-3.36-70.91-3.39Z"/><ellipse class="cls-3" cx="69.1" cy="481.44" rx="5.56" ry="22.74" transform="translate(-412.43 549.96) rotate(-89.93)"/><path class="cls-4" d="M69.21,487.37H69.1c-11.36,0-23.1-2.25-23.1-5.95s11.69-5.9,23-5.9h.12c11.35,0,23.1,2.25,23.09,6S80.51,487.37,69.21,487.37ZM69,476.25c-13.31,0-22.26,2.67-22.26,5.17s9,5.21,22.37,5.22h.11c13.32,0,22.27-2.67,22.27-5.17s-9-5.21-22.37-5.22Z"/><path class="cls-5" d="M294.12,469.75c.88,2.65,1.47,4.59-.06,5.8s-10,2.56-13.75,2.57-8.9.95-15.31,2.38-17.93,2-24.65,0-6.77-3.91-6.77-3.91l1.77-4.07,32.19-.57Z"/><path class="cls-6" d="M251.73,482.7a44.49,44.49,0,0,1-11.64-1.32c-6.83-2-7.41-4.16-7.43-4.77a1,1,0,0,1,.08-.39l1.77-4.07a.91.91,0,0,1,.83-.55l32.15-.57,26.55-2.2a.94.94,0,0,1,1,.63c.84,2.54,1.71,5.17-.37,6.81-1.86,1.47-10.74,2.76-14.31,2.78-3.26,0-7.79.71-15.12,2.35A66.9,66.9,0,0,1,251.73,482.7Zm-17.15-6.09c.29.43,1.49,1.68,6,3a41.15,41.15,0,0,0,11.12,1.25,64.39,64.39,0,0,0,13.07-1.26c7.47-1.67,12.11-2.39,15.51-2.4,4,0,12-1.46,13.18-2.37.88-.7.71-1.83,0-4.1l-25.86,2.14h-.06l-31.59.55Z"/><path class="cls-5" d="M285.23,463.49a10.75,10.75,0,0,0,4.67-10.3c-1.34-10.43.4-22.46-5.94-31.37a8,8,0,0,0-3.47-3.06,8.73,8.73,0,0,0-4.81-.05c-2.44.5-5.06,1.41-6.3,3.57a10.1,10.1,0,0,0-.95,2.92,54.74,54.74,0,0,0-1.19,16.7c.32,4.51,1.57,9.54,1.33,14a10.77,10.77,0,0,0,16.66,7.56Z"/><path class="cls-6" d="M279.23,466.23h0a11.7,11.7,0,0,1-11.56-10.18,1,1,0,0,1,0-.17,46.24,46.24,0,0,0-.69-8.57c-.25-1.77-.51-3.61-.64-5.35a55.85,55.85,0,0,1,1.21-17,10.79,10.79,0,0,1,1.05-3.18c1.52-2.65,4.68-3.56,6.91-4a14.2,14.2,0,0,1,2.83-.33,7,7,0,0,1,2.5.42,9.13,9.13,0,0,1,3.89,3.38c4.75,6.67,5.11,14.94,5.47,22.93.13,3,.27,6,.64,8.86a11.67,11.67,0,0,1-10.09,13.07A12.71,12.71,0,0,1,279.23,466.23Zm-9.73-10.34a9.85,9.85,0,0,0,9.73,8.5h0a10.66,10.66,0,0,0,1.26-.08,9.81,9.81,0,0,0,8.5-11c-.38-2.93-.51-6-.65-9-.34-7.72-.7-15.71-5.13-21.94a7.11,7.11,0,0,0-3-2.73,5.22,5.22,0,0,0-1.84-.3,12.54,12.54,0,0,0-2.46.3c-3,.6-4.8,1.6-5.68,3.12a9.46,9.46,0,0,0-.85,2.65,54.1,54.1,0,0,0-1.17,16.45c.12,1.67.36,3.39.62,5.21A47.63,47.63,0,0,1,269.5,455.89Z"/><path class="cls-7" d="M290.8,455.43c-1.66-.86-6.56,7.64-12.15,7.62s-10.08-7.12-10.08-7.12-11.52,6.82-18.07,7.62c-7.21.88-16.09,4.09-14.81,10.54a42,42,0,0,0,28.8,2.43c11.75-3.39,22.73-2.31,28.35-4.65S290.8,455.43,290.8,455.43Z"/><path class="cls-6" d="M253.6,479h0a42.54,42.54,0,0,1-18.34-4.06.93.93,0,0,1-.48-.64,6.59,6.59,0,0,1,1.18-5.34c3.34-4.61,11.88-6,14.42-6.29,6.29-.77,17.61-7.44,17.72-7.5a.92.92,0,0,1,1.25.3c0,.06,4.29,6.67,9.3,6.69,3,0,5.93-2.9,8.09-5,1.64-1.6,2.72-2.66,3.8-2.66a1.45,1.45,0,0,1,.68.16,1,1,0,0,1,.39.38c.23.42,5.59,10.37,3.86,15.27a4,4,0,0,1-2.27,2.46c-2.77,1.15-6.71,1.51-11.27,1.92a88.07,88.07,0,0,0-17.19,2.77A40.29,40.29,0,0,1,253.6,479Zm-17.08-5.49a42.42,42.42,0,0,0,17.08,3.64h0a38.54,38.54,0,0,0,10.63-1.48,89.68,89.68,0,0,1,17.54-2.84c4.4-.4,8.21-.74,10.72-1.78a2.16,2.16,0,0,0,1.25-1.37c1.13-3.22-1.89-10.19-3.46-13.24a21.07,21.07,0,0,0-2.25,2c-2.38,2.34-5.65,5.54-9.36,5.54-5,0-9-4.91-10.37-6.82-2.7,1.54-11.93,6.61-17.69,7.31-4.85.6-10.85,2.37-13.16,5.55A4.76,4.76,0,0,0,236.52,473.48Z"/><path class="cls-8" d="M255.68,461.14c-2.46-17.63-5.73-50.45-3.27-80.55,2.7-33.07,4.6-43.61,12.59-57.43,4.4-7.62,52.85,2.08,49.34,10-2.66,6-14.64,25-18,52-2.89,23.18-2.76,54.05-1.32,75.05C288.36,463.07,267.82,467.1,255.68,461.14Z"/><path class="cls-6" d="M271.88,465.14c-6.73,0-12.31-1.07-16.6-3.18a.89.89,0,0,1-.51-.7c-1.87-13.42-5.94-48.15-3.28-80.74,2.68-32.82,4.56-43.71,12.71-57.82,1.24-2.14,5-3.23,11.24-3.23,13.79,0,35.79,5.42,39.39,11a3.11,3.11,0,0,1,.35,3.1c-.46,1-1.17,2.4-2.07,4.14-4.25,8.22-13.08,25.32-15.87,47.65-2.88,23-2.74,54.19-1.33,74.87a.92.92,0,0,1-.55.91C290.74,463.06,280.94,465.14,271.88,465.14Zm-15.35-4.62c4,1.84,9.14,2.78,15.35,2.78A69.38,69.38,0,0,0,294,459.65c-1.28-19.3-1.68-50.12,1.38-74.56,2.83-22.65,11.77-39.95,16.06-48.26.89-1.71,1.59-3.07,2-4.05a1.3,1.3,0,0,0-.2-1.34c-3-4.64-23.53-10.12-37.85-10.12-7.5,0-9.24,1.61-9.65,2.31-8,13.79-9.81,24.55-12.47,57C250.71,412.69,254.64,446.82,256.53,460.52Z"/><ellipse class="cls-8" cx="300.45" cy="306.43" rx="107.8" ry="67.72" transform="matrix(0.99, -0.13, 0.13, 0.99, -37.7, 42.19)"/><path class="cls-6" d="M287,376c-24.17,0-46.9-5.41-64-15.23-17.45-10-28.21-24.24-30.3-40-2.42-18.26,6.57-36.89,25.33-52.45s44.7-26.08,73.42-29.89a171.11,171.11,0,0,1,22.5-1.51c24.18,0,46.91,5.41,64,15.24,17.44,10,28.2,24.23,30.3,40,2.42,18.25-6.57,36.88-25.33,52.45s-44.7,26.08-73.42,29.89A171.23,171.23,0,0,1,287,376Zm27-137.25a169.28,169.28,0,0,0-22.26,1.49c-28.38,3.77-54.12,14.24-72.49,29.49s-27,33.18-24.67,50.79c2,15.19,12.45,28.92,29.38,38.65s39.22,15,63.08,15a169.43,169.43,0,0,0,22.27-1.49c58.42-7.75,102-43.76,97.16-80.27-2-15.2-12.45-28.92-29.39-38.66S337.8,238.72,313.93,238.72Z"/><path class="cls-5" d="M352,472.82c.88,2.65,1.47,4.59-.06,5.8s-10,2.56-13.74,2.57-8.91.95-15.32,2.38-17.93,2-24.65,0-6.76-3.91-6.76-3.91l1.76-4.07,32.19-.56Z"/><path class="cls-6" d="M309.62,485.77A44.49,44.49,0,0,1,298,484.45c-6.83-2-7.41-4.15-7.43-4.77a1,1,0,0,1,.08-.39l1.77-4.06a.92.92,0,0,1,.83-.56l32.15-.57,26.56-2.2a.94.94,0,0,1,.95.63c.84,2.54,1.71,5.17-.37,6.81-1.86,1.47-10.74,2.76-14.31,2.78-3.26,0-7.78.71-15.12,2.35A66.9,66.9,0,0,1,309.62,485.77Zm-17.15-6.09c.3.43,1.49,1.68,6,3a41.61,41.61,0,0,0,11.12,1.24,64.39,64.39,0,0,0,13.07-1.26c7.47-1.67,12.11-2.38,15.51-2.4,4,0,12-1.45,13.18-2.37.88-.7.71-1.83,0-4.1l-25.86,2.14h-.06l-31.59.55Z"/><path class="cls-5" d="M343.12,466.56a10.75,10.75,0,0,0,4.67-10.3c-1.33-10.43.4-22.45-5.94-31.37a7.92,7.92,0,0,0-3.47-3.05,8.64,8.64,0,0,0-4.81-.06c-2.44.5-5.06,1.41-6.3,3.57a10.1,10.1,0,0,0-.95,2.92,54.74,54.74,0,0,0-1.19,16.7c.32,4.51,1.57,9.54,1.33,14a10.77,10.77,0,0,0,16.66,7.56Z"/><path class="cls-6" d="M337.12,469.3h0a11.7,11.7,0,0,1-11.57-10.18,1,1,0,0,1,0-.17,46.24,46.24,0,0,0-.69-8.57c-.25-1.77-.51-3.61-.64-5.34a55.92,55.92,0,0,1,1.21-17,11.09,11.09,0,0,1,1.05-3.18c1.53-2.65,4.68-3.56,6.91-4a15,15,0,0,1,2.83-.33,7,7,0,0,1,2.5.42,9,9,0,0,1,3.89,3.39c4.75,6.66,5.12,14.93,5.47,22.92.14,3,.27,6,.64,8.86a11.67,11.67,0,0,1-10.09,13.07A12.71,12.71,0,0,1,337.12,469.3ZM327.39,459a9.85,9.85,0,0,0,9.73,8.5h0a10.66,10.66,0,0,0,1.26-.08,9.89,9.89,0,0,0,4.23-1.58,9.78,9.78,0,0,0,4.27-9.42c-.37-2.93-.51-6-.65-9-.34-7.72-.7-15.71-5.13-21.94a7,7,0,0,0-3.05-2.72,5,5,0,0,0-1.84-.31,12.73,12.73,0,0,0-2.46.3c-3,.6-4.8,1.6-5.68,3.12a9.46,9.46,0,0,0-.85,2.65,54.1,54.1,0,0,0-1.17,16.45c.12,1.67.37,3.39.62,5.21A47.63,47.63,0,0,1,327.39,459Z"/><path class="cls-7" d="M348.69,458.5c-1.66-.86-6.56,7.64-12.15,7.62S326.46,459,326.46,459s-11.52,6.82-18.07,7.62c-7.21.88-16.09,4.09-14.81,10.55a42,42,0,0,0,28.8,2.42c11.75-3.39,22.73-2.31,28.35-4.65S348.69,458.5,348.69,458.5Z"/><path class="cls-6" d="M311.49,482h0A42.54,42.54,0,0,1,293.15,478a.89.89,0,0,1-.47-.64,6.58,6.58,0,0,1,1.17-5.34c3.34-4.61,11.88-6,14.42-6.29,6.29-.77,17.61-7.44,17.72-7.5a.92.92,0,0,1,1.25.3c.05.06,4.29,6.67,9.3,6.69,3,0,5.94-2.9,8.1-5,1.63-1.6,2.71-2.66,3.79-2.66a1.52,1.52,0,0,1,.69.16,1,1,0,0,1,.38.38c.23.42,5.59,10.38,3.87,15.27a4,4,0,0,1-2.28,2.46c-2.77,1.15-6.71,1.51-11.27,1.92a88.07,88.07,0,0,0-17.19,2.77A40.29,40.29,0,0,1,311.49,482Zm-17.08-5.49a42.42,42.42,0,0,0,17.08,3.64h0a38.49,38.49,0,0,0,10.63-1.48,89.68,89.68,0,0,1,17.54-2.84c4.4-.4,8.21-.74,10.72-1.78a2.16,2.16,0,0,0,1.25-1.37c1.13-3.22-1.89-10.19-3.46-13.24a20.16,20.16,0,0,0-2.24,2c-2.39,2.34-5.66,5.54-9.37,5.54-5,0-9-4.91-10.37-6.81-2.7,1.53-11.92,6.6-17.69,7.31-4.85.59-10.85,2.36-13.16,5.54A4.76,4.76,0,0,0,294.41,476.55Z"/><path class="cls-8" d="M305,464.36c-5.84-17.81-13.21-107.18-.62-139.43,3.21-8.2,70.47-10.68,67-2.76-2.66,6-13.75,39.08-17.13,66.1-2.89,23.18,1.56,54.48,3,75.47C350.58,466.56,317.13,470.33,305,464.36Z"/><path class="cls-6" d="M326.07,468.46c-6.77,0-16-.57-21.48-3.27a1,1,0,0,1-.47-.54c-3.19-9.76-6.32-37.51-7.26-64.56-.7-20-.76-56.47,6.67-75.49,1-2.56,6.5-4.63,16.35-6.15a197.07,197.07,0,0,1,28.37-2c7.92,0,21.54.51,23.77,3.94a2.23,2.23,0,0,1,.16,2.17c-2.86,6.43-13.76,39.52-17.05,65.85-2.2,17.54-.18,39.42,1.59,58.72.55,5.94,1.06,11.55,1.41,16.57a.93.93,0,0,1-.56.91C353.27,466.42,338.89,468.46,326.07,468.46Zm-20.31-4.76c4.14,1.91,11.15,2.91,20.31,2.91,13,0,25.8-1.95,30.17-3.48-.34-4.83-.83-10.19-1.35-15.85-1.79-19.39-3.81-41.38-1.59-59.12,3.31-26.51,14.31-59.88,17.19-66.37a.35.35,0,0,0,0-.41c-1-1.55-8.26-3.11-22.22-3.11-21.08,0-41.58,3.33-43,7C292.76,357.23,300.17,445.71,305.76,463.7Z"/><path class="cls-9" d="M177,292.62c-45.32,28.67-91.81-10.69-91.85-10.72a.73.73,0,0,1-.08-.09l-5.1-2.5a4.26,4.26,0,1,1,3.6-7.72l.17.2a.41.41,0,0,0,.54-.17.41.41,0,0,0-.12-.55l-.78-.41a4.26,4.26,0,1,1,4.86-7s-1.61-1.25,1.89,1.2a.66.66,0,0,0,.87-.1.67.67,0,0,0,0-.88l-.88-1a4.26,4.26,0,1,1,6.57-5.42s-.67-.89,2,2.4c.14.16.5.65.76.55s.31-1,.49-1.25a3.11,3.11,0,0,1,2-1.29,6.55,6.55,0,0,1,2.29-.18,5.44,5.44,0,0,1,3.72,1.93,6.22,6.22,0,0,1,1.18,4.14,6.61,6.61,0,0,1-.4,2.07,10.92,10.92,0,0,0-.43,1.48c.77.51,1.54,1,2.32,1.49a70.25,70.25,0,0,0,8.29,4.34,58.35,58.35,0,0,0,10,3.36,49.16,49.16,0,0,0,11.27,1.37,45.55,45.55,0,0,0,12.23-1.67,49.83,49.83,0,0,0,12.85-5.72c36.28-22.52,24-65.34,24-65.34s3.43-4.24,11.94-3.56,12.63,5.54,12.63,5.54S228.29,260.13,177,292.62Z"/><path class="cls-10" d="M141.31,304c-31.13,0-55.77-20.52-56.8-21.39l-.06-.06-4.94-2.41a5.18,5.18,0,0,1,2.1-9.87,5.19,5.19,0,0,1-.11-6.06,5.21,5.21,0,0,1,6.36-1.78c.22,0,.34,0,1.19.6a5.18,5.18,0,0,1,1-6.83,5.19,5.19,0,0,1,7.18.57c.31.31.82.91,1.8,2.11a1.28,1.28,0,0,1,.11-.2,4.14,4.14,0,0,1,2.5-1.68,8,8,0,0,1,2.6-.2,6.37,6.37,0,0,1,4.35,2.28,7,7,0,0,1,1.38,4.74,7.6,7.6,0,0,1-.45,2.35c0,.11-.16.45-.25.76.64.42,1.21.78,1.75,1.11a68.09,68.09,0,0,0,8.18,4.28,57.78,57.78,0,0,0,9.8,3.32A48.6,48.6,0,0,0,140.1,277h.08a44.25,44.25,0,0,0,11.9-1.63,49.47,49.47,0,0,0,12.61-5.62c14.79-9.18,23.27-22.79,25.19-40.43a69.49,69.49,0,0,0-1.55-23.88.89.89,0,0,1,.17-.83c.13-.16,3.3-4,10.83-4,.61,0,1.25,0,1.89.08,8.78.7,13.08,5.64,13.26,5.85a.9.9,0,0,1,.18.35,79.55,79.55,0,0,1,.87,30.95A76.94,76.94,0,0,1,205.15,266c-6.56,10.67-15.88,19.87-27.71,27.36A66.69,66.69,0,0,1,141.31,304ZM85.75,281.25c1.33,1.09,25.79,20.91,55.56,20.91a64.89,64.89,0,0,0,35.15-10.32c11.57-7.33,20.69-16.32,27.09-26.72a75,75,0,0,0,10.14-27.49,79.77,79.77,0,0,0-.75-30,18.78,18.78,0,0,0-11.87-5.07c-.59-.05-1.18-.07-1.74-.07-5.43,0-8.21,2.14-9.09,3a71.41,71.41,0,0,1,1.48,24.07c-1.37,12.54-7,30-26.06,41.8a51.06,51.06,0,0,1-13.08,5.82,46,46,0,0,1-12.4,1.7h-.08a50.59,50.59,0,0,1-11.48-1.39A60,60,0,0,1,118.5,274a71.06,71.06,0,0,1-8.4-4.4c-.72-.44-1.46-.91-2.35-1.5-.66-.44-.46-1.11.08-2.57a5.8,5.8,0,0,0,.34-1.79,5.36,5.36,0,0,0-1-3.52,4.53,4.53,0,0,0-3.09-1.59,5.81,5.81,0,0,0-2,.15,2.22,2.22,0,0,0-1.37.87c0,.06,0,.19-.07.27a1.72,1.72,0,0,1-.88,1.37,1.14,1.14,0,0,1-.41.07,1.86,1.86,0,0,1-1.36-.86l0,0c-1.12-1.37-1.63-2-1.85-2.23a.69.69,0,0,1-.18-.16,3.32,3.32,0,0,0-2.58-1.22,3.33,3.33,0,0,0-3.32,3,3.32,3.32,0,0,0,.75,2.44l.86,1a1.61,1.61,0,0,1,0,2.12,1.64,1.64,0,0,1-2.08.22c-.71-.5-1.19-.83-1.51-1a1,1,0,0,1-.38-.15,3.25,3.25,0,0,0-1.9-.6,3.34,3.34,0,0,0-3.29,3.93,3.29,3.29,0,0,0,1.34,2.11l.73.38.1.06a1.34,1.34,0,0,1,.39,1.77,1.37,1.37,0,0,1-1.73.55.83.83,0,0,1-.3-.23l0,0a3.3,3.3,0,0,0-1.24-.24,3.34,3.34,0,0,0-1.41,6.37l5.12,2.5a.89.89,0,0,1,.3.24Z"/><path class="cls-11" d="M112.9,270.18q2.91,1.63,6,3a58.35,58.35,0,0,0,10,3.36,49.16,49.16,0,0,0,11.27,1.37,45.55,45.55,0,0,0,12.23-1.67,49.83,49.83,0,0,0,12.85-5.72c36.28-22.52,24-65.34,24-65.34s3.43-4.24,11.94-3.56,12.63,5.54,12.63,5.54,14.51,53-36.83,85.47c-30.63,19.37-61.79,7.68-78.78-1.95C105.11,286.27,111.75,276.79,112.9,270.18Z"/><path class="cls-12" d="M141.31,304c-17.76,0-33.51-6.81-43.6-12.52a.92.92,0,0,1,0-1.58c6.51-4.13,13.2-13.42,14.32-19.88a.91.91,0,0,1,.52-.67.89.89,0,0,1,.84,0c2,1.1,4,2.09,5.89,2.94a57.49,57.49,0,0,0,9.8,3.32A48.6,48.6,0,0,0,140.1,277h.08a44.25,44.25,0,0,0,11.9-1.63,49.47,49.47,0,0,0,12.61-5.62c14.79-9.18,23.27-22.79,25.19-40.43a69.49,69.49,0,0,0-1.55-23.88.89.89,0,0,1,.17-.83c.13-.16,3.3-4,10.83-4,.61,0,1.25,0,1.89.08,8.78.7,13.08,5.64,13.26,5.85a.78.78,0,0,1,.18.35,79.55,79.55,0,0,1,.87,30.95A76.94,76.94,0,0,1,205.15,266c-6.56,10.67-15.88,19.87-27.71,27.36A66.69,66.69,0,0,1,141.31,304ZM99.92,290.6c9.92,5.44,24.77,11.56,41.39,11.56a64.89,64.89,0,0,0,35.15-10.32c11.59-7.34,20.71-16.34,27.12-26.77a75.06,75.06,0,0,0,10.13-27.52,79.81,79.81,0,0,0-.77-30,18.78,18.78,0,0,0-11.87-5.07c-.59-.05-1.18-.07-1.74-.07-5.43,0-8.21,2.14-9.09,3a71.41,71.41,0,0,1,1.48,24.07c-1.37,12.54-7,30-26.06,41.8a51.06,51.06,0,0,1-13.08,5.82,46,46,0,0,1-12.4,1.7h-.08a50.59,50.59,0,0,1-11.48-1.39A60,60,0,0,1,118.5,274c-1.64-.72-3.3-1.53-5-2.43C111.9,278,106.06,286.16,99.92,290.6Z"/><path class="cls-12" d="M111.49,297.8a.93.93,0,0,1-.76-.4.92.92,0,0,1,.24-1.28c9.18-6.23,12.35-15.16,12.28-20.92a.92.92,0,0,1,.91-.93.93.93,0,0,1,.93.91c.12,9.94-7,18.31-13.08,22.46A.91.91,0,0,1,111.49,297.8Z"/><path class="cls-6" d="M70.31,483.2a5.07,5.07,0,0,1-5.06-4.9c0-1.42-4.84-142.86-4.84-180.51,0-12.89,5.24-20.67,9.64-24.93a30.46,30.46,0,0,1,21.34-8.47c15.4,0,31,11.23,31,32.7a5.07,5.07,0,1,1-10.13,0c0-10.87-6.53-22.57-20.85-22.57-10.37,0-20.84,7.2-20.84,23.27,0,37.48,4.78,178.74,4.83,180.17a5.06,5.06,0,0,1-4.89,5.23Z"/><path class="cls-9" d="M108.26,269.06a8.76,8.76,0,0,0,.67-6.6c-.77-2.14-3-3.81-5.27-3.38a3.1,3.1,0,0,0-1.1.44,4.15,4.15,0,0,0-.94.93A11.73,11.73,0,0,0,99.28,269a5.08,5.08,0,0,0,1.65,3.45,4.06,4.06,0,0,0,4.38.08A7.66,7.66,0,0,0,108.26,269.06Z"/><path class="cls-10" d="M103.08,274.08h0a4.34,4.34,0,0,1-2.71-.88,5.79,5.79,0,0,1-2-4.06,12.58,12.58,0,0,1,2.53-9.26,4.76,4.76,0,0,1,1.15-1.13,4,4,0,0,1,1.43-.57,4.58,4.58,0,0,1,.9-.09,6.06,6.06,0,0,1,5.41,4.05,9.53,9.53,0,0,1-.7,7.32,8.46,8.46,0,0,1-3.32,3.9A5.45,5.45,0,0,1,103.08,274.08Zm1.3-14.14a2.41,2.41,0,0,0-.54.05,2.25,2.25,0,0,0-.77.29,3.32,3.32,0,0,0-.72.73,10.72,10.72,0,0,0-2.15,7.9,4.13,4.13,0,0,0,1.29,2.84,2.61,2.61,0,0,0,1.59.49h0a3.63,3.63,0,0,0,1.78-.48,6.72,6.72,0,0,0,2.57-3.09,8,8,0,0,0,.63-5.9A4.22,4.22,0,0,0,104.38,259.94Z"/><path class="cls-9" d="M80.7,268.15a22.06,22.06,0,0,1,1.75,3.76,3.23,3.23,0,0,1,.14,2.36c-.5,1.12-2.12,1.65-3.48,1.46a8.4,8.4,0,0,1-3.58-1.68,13.63,13.63,0,0,1-4.5-4.5,4.25,4.25,0,0,1-.5-1.61,3.53,3.53,0,0,1,1.81-3.1,5.26,5.26,0,0,1,4-.53A7.57,7.57,0,0,1,80.7,268.15Z"/><path class="cls-10" d="M79.67,276.69a5.21,5.21,0,0,1-.69-.05,9.25,9.25,0,0,1-4-1.83A14.49,14.49,0,0,1,70.21,270a5,5,0,0,1-.6-2,4.45,4.45,0,0,1,2.26-3.94,6.29,6.29,0,0,1,4.69-.63c1.94.51,3.55,1.9,4.93,4.27a21.75,21.75,0,0,1,1.82,3.92,3.48,3.48,0,0,1-3.64,5.08ZM75,265.06a4.19,4.19,0,0,0-2.16.57,2.62,2.62,0,0,0-1.37,2.25,3.06,3.06,0,0,0,.4,1.24,12.75,12.75,0,0,0,4.21,4.18,7.43,7.43,0,0,0,3.18,1.51,3,3,0,0,0,.43,0,2.29,2.29,0,0,0,2.08-.95,2.45,2.45,0,0,0-.17-1.67,20.63,20.63,0,0,0-1.68-3.6c-1.14-1.95-2.35-3-3.81-3.42A4.5,4.5,0,0,0,75,265.06Z"/><path class="cls-9" d="M89.93,269.57a3.69,3.69,0,0,1-.16,2.48c-.67,1.18-2.47,1.52-3.81,1.06a7.1,7.1,0,0,1-3.12-2.58,30.59,30.59,0,0,1-3.18-5,5.31,5.31,0,0,1-.76-3.77A4.82,4.82,0,0,1,82,258.9a3.55,3.55,0,0,1,2.24-.19,3.37,3.37,0,0,1,1.2.8C88.28,262.14,89.28,265.93,89.93,269.57Z"/><path class="cls-10" d="M87.19,274.23a4.81,4.81,0,0,1-1.53-.25,8.05,8.05,0,0,1-3.55-2.88A31.72,31.72,0,0,1,78.84,266a6.12,6.12,0,0,1-.82-4.44A5.67,5.67,0,0,1,81.73,258a4.35,4.35,0,0,1,2.83-.19,4.14,4.14,0,0,1,1.55,1c3,2.84,4.08,6.94,4.73,10.58a4.6,4.6,0,0,1-.27,3.1A3.81,3.81,0,0,1,87.19,274.23Zm-3.67-14.71a3.48,3.48,0,0,0-1.16.24A3.94,3.94,0,0,0,79.79,262a4.48,4.48,0,0,0,.69,3.09A30.08,30.08,0,0,0,83.56,270a6.31,6.31,0,0,0,2.7,2.28,3.07,3.07,0,0,0,.93.15A2,2,0,0,0,89,271.6a2.93,2.93,0,0,0,0-1.87c-.62-3.5-1.55-7.09-4.17-9.55a2.45,2.45,0,0,0-.86-.59A1.66,1.66,0,0,0,83.52,259.52Z"/><path class="cls-9" d="M91.47,269.52a7.49,7.49,0,0,1-1.79-2,32.66,32.66,0,0,1-3.14-5.7,6.16,6.16,0,0,1-.57-1.92,4.41,4.41,0,0,1,2.31-4,4.94,4.94,0,0,1,4.83,0,6.93,6.93,0,0,1,2.49,3.47c1.13,2.68,2.05,5.75.66,8.52a3.75,3.75,0,0,1-3.36,2.26A3,3,0,0,1,91.47,269.52Z"/><path class="cls-10" d="M93.13,271a1.77,1.77,0,0,1-.32,0,3.81,3.81,0,0,1-1.88-.75,8.75,8.75,0,0,1-2-2.21,33.13,33.13,0,0,1-3.23-5.86,7.46,7.46,0,0,1-.64-2.2,5.32,5.32,0,0,1,2.77-4.9,6.06,6.06,0,0,1,3-.77,5.35,5.35,0,0,1,2.8.75A7.76,7.76,0,0,1,96.45,259c1.2,2.84,2.21,6.16.64,9.29A4.8,4.8,0,0,1,93.13,271Zm-2.34-14.87a4.24,4.24,0,0,0-2.06.53,3.51,3.51,0,0,0-1.84,3.14,5.82,5.82,0,0,0,.49,1.64A32.05,32.05,0,0,0,90.43,267,7,7,0,0,0,92,268.77a2.08,2.08,0,0,0,1,.42,2.91,2.91,0,0,0,2.45-1.76c1.23-2.45.34-5.29-.69-7.74a6.12,6.12,0,0,0-2.12-3A3.58,3.58,0,0,0,90.79,256.17Z"/><path class="cls-13" d="M207.33,238.17a10.93,10.93,0,0,0-3.51-.38,17.13,17.13,0,0,0-3.23.48s-1,5.5,2.62,5.93S207.33,238.17,207.33,238.17Z"/><path class="cls-9" d="M233.42,109.55c-34.46,7.92-41.29,31.72-41.29,31.72A53.47,53.47,0,0,0,162.9,162c-10.71,15.3-9.39,33.52-9.39,33.52S141.9,203,136.79,221.31c-4.53,16.27,5.53,28.28,5.53,28.28s-9.71,13.88-6.22,36.18,18.51,28.69,18.51,28.69-.76,24.13,25.7,35S227,343.34,227,343.34s12.57,8.3,40.65,1c23.9-6.19,32.1-22.19,32.1-22.19s22.27,7.75,47.58-9c20-13.3,22.79-32.63,22.79-32.63s17.44-5.06,25.62-28.07a36.54,36.54,0,0,0-7.35-37.61s5.45-23.4-8.32-43c-14.21-20.24-31-21.46-31-21.46s-8-24.29-31.25-32.46-40.89-1.86-40.89-1.86S259.46,103.56,233.42,109.55Z"/><path class="cls-12" d="M198.26,354a48.11,48.11,0,0,1-18.3-3.69c-14-5.72-20.36-15.14-23.27-22a36.92,36.92,0,0,1-3-13.2,29.29,29.29,0,0,1-7.69-5.93c-3.91-4.09-9-11.44-10.81-23.2-3.15-20.14,4.19-33.38,6-36.27a33.46,33.46,0,0,1-5.28-28.57c4.63-16.61,14.41-24.4,16.65-26-.14-3.19-.3-19.47,9.58-33.57a54.24,54.24,0,0,1,29.27-21,40.76,40.76,0,0,1,7.74-12.72c5.58-6.44,16-15,34.06-19.13A64.08,64.08,0,0,1,247.49,107c16.48,0,27.31,6.58,29.5,8a57,57,0,0,1,16.64-2.23A73.7,73.7,0,0,1,318,117c21.46,7.53,30.22,28.73,31.62,32.48,3.21.42,18.17,3.33,31.13,21.78,12.73,18.13,9.25,39.7,8.56,43.25a36.78,36.78,0,0,1,6.54,10.23,37.48,37.48,0,0,1,.67,28c-2.37,6.68-7.1,16.1-16.18,23.08a35.32,35.32,0,0,1-9.48,5.38c-.63,3.39-4.63,20.44-23.1,32.69-13.69,9.08-26.5,11-34.83,11a47.38,47.38,0,0,1-12.82-1.61c-1.88,3.2-10.81,16.42-32.31,22a87,87,0,0,1-21.65,3c-11.14,0-17.31-2.82-19.15-3.82A49.1,49.1,0,0,1,198.26,354Zm49.23-245.13a61.61,61.61,0,0,0-13.87,1.61c-17.5,4-27.61,12.25-33,18.46-5.85,6.71-7.59,12.56-7.61,12.62a.9.9,0,0,1-.68.64,53.06,53.06,0,0,0-28.68,20.38c-10.39,14.83-9.23,32.74-9.22,32.92a.94.94,0,0,1-.42.84c-.11.07-11.38,7.54-16.33,25.25-4.35,15.58,5.25,27.33,5.35,27.44a.92.92,0,0,1,.05,1.12c-.09.14-9.45,13.87-6.07,35.51,1,6.2,3.54,15.07,10.25,22.14a26.73,26.73,0,0,0,7.71,5.85.92.92,0,0,1,.56.87,34.74,34.74,0,0,0,2.89,13.11c2.78,6.55,8.9,15.51,22.24,21a46.25,46.25,0,0,0,17.6,3.55,47.78,47.78,0,0,0,28.11-9.49.92.92,0,0,1,1.1-.07c.05,0,6.06,3.87,18.72,3.87a85.61,85.61,0,0,0,21.18-2.95c6.69-1.73,16.38-5.41,24.55-13.13a36.6,36.6,0,0,0,7-8.59.93.93,0,0,1,1.12-.45,43.51,43.51,0,0,0,13,1.74c8.08,0,20.51-1.86,33.81-10.68,19.44-12.9,22.36-31.8,22.39-32a.91.91,0,0,1,.66-.75c.17-.05,17.09-5.24,25-27.5a35.91,35.91,0,0,0-7.12-36.64.93.93,0,0,1-.26-.87c.06-.23,5.19-23.24-8.17-42.27-7.2-10.25-15.07-15.43-20.4-18a31.28,31.28,0,0,0-10-3.1.94.94,0,0,1-.81-.63c-.08-.24-8.1-24-30.68-31.88a71.87,71.87,0,0,0-23.8-4.13,53.49,53.49,0,0,0-16.47,2.27,1,1,0,0,1-.85-.12C276.2,116.72,265,108.84,247.49,108.84Z"/><path class="cls-9" d="M286.57,112.82c-34.46,7.93-41.29,31.73-41.29,31.73a53.5,53.5,0,0,0-29.23,20.75c-10.71,15.29-9.39,33.51-9.39,33.51s-11.6,7.48-16.71,25.78c-4.54,16.26,5.53,28.28,5.53,28.28s-9.71,13.88-6.22,36.18,18.5,28.69,18.5,28.69-.76,24.13,25.71,35,46.64-6.09,46.64-6.09,12.58,8.3,40.65,1c23.9-6.19,32.1-22.19,32.1-22.19s22.27,7.75,47.58-9.05c20.05-13.29,22.8-32.62,22.8-32.62s17.43-5.06,25.61-28.07a36.52,36.52,0,0,0-7.35-37.61s5.45-23.4-8.31-43c-14.21-20.24-31.05-21.46-31.05-21.46s-7.95-24.29-31.25-32.46S330,119.33,330,119.33,312.62,106.83,286.57,112.82Z"/><path class="cls-12" d="M251.41,357.25a48.06,48.06,0,0,1-18.29-3.69c-14-5.72-20.37-15.14-23.28-22a37.39,37.39,0,0,1-3-13.2,29.46,29.46,0,0,1-7.69-5.93c-3.91-4.09-9-11.45-10.8-23.2-3.16-20.14,4.19-33.38,6-36.27a33.46,33.46,0,0,1-5.29-28.57c4.64-16.61,14.41-24.4,16.66-26-.14-3.19-.31-19.47,9.58-33.58a54.22,54.22,0,0,1,29.27-21,40.44,40.44,0,0,1,7.74-12.72c5.58-6.44,16-15,34.05-19.13a63.59,63.59,0,0,1,14.29-1.65c16.48,0,27.31,6.58,29.5,8a57,57,0,0,1,16.64-2.23,73.74,73.74,0,0,1,24.41,4.24c21.45,7.53,30.22,28.73,31.61,32.47,3.22.43,18.17,3.34,31.13,21.79,12.73,18.13,9.25,39.7,8.56,43.25A36.38,36.38,0,0,1,449,228.06a37.52,37.52,0,0,1,.68,28c-2.37,6.68-7.11,16.1-16.18,23.08a35.78,35.78,0,0,1-9.49,5.38c-.62,3.38-4.62,20.44-23.1,32.69-13.68,9.08-26.49,11-34.83,11a47.45,47.45,0,0,1-12.82-1.61c-1.88,3.19-10.8,16.41-32.31,22a87,87,0,0,1-21.64,3c-11.15,0-17.32-2.82-19.16-3.83A49,49,0,0,1,251.41,357.25Zm49.24-245.13a62.17,62.17,0,0,0-13.87,1.6c-33.54,7.72-40.54,30.85-40.61,31.09a.92.92,0,0,1-.69.64,53,53,0,0,0-28.68,20.38c-10.4,14.85-9.23,32.74-9.22,32.92a.9.9,0,0,1-.42.84c-.11.07-11.38,7.54-16.32,25.25-4.35,15.58,5.25,27.32,5.35,27.44a.93.93,0,0,1,0,1.12c-.09.13-9.45,13.87-6.06,35.51,1,6.22,3.56,15.13,10.32,22.21a26.19,26.19,0,0,0,7.63,5.77.93.93,0,0,1,.56.88,34.74,34.74,0,0,0,2.89,13.11c2.79,6.55,8.9,15.51,22.24,21a46.48,46.48,0,0,0,17.6,3.55,47.53,47.53,0,0,0,28.11-9.5.93.93,0,0,1,1.1-.06c.06,0,6.07,3.87,18.73,3.87a85.24,85.24,0,0,0,21.18-3,55.74,55.74,0,0,0,24.61-13.18,36.12,36.12,0,0,0,6.91-8.53.91.91,0,0,1,1.12-.45,43.71,43.71,0,0,0,12.95,1.73c8.08,0,20.51-1.85,33.81-10.67,19.48-12.92,22.37-31.8,22.4-32a.91.91,0,0,1,.65-.76c.17-.05,17.09-5.23,25-27.49a35.88,35.88,0,0,0-7.12-36.64.91.91,0,0,1-.25-.87c.05-.23,5.18-23.24-8.18-42.27-7.19-10.25-15.06-15.43-20.4-18a31.2,31.2,0,0,0-10-3.1.91.91,0,0,1-.8-.64c-.08-.23-8.11-24-30.68-31.87a71.93,71.93,0,0,0-23.8-4.14,54.29,54.29,0,0,0-16.48,2.27.9.9,0,0,1-.84-.11C329.35,120,318.15,112.12,300.65,112.12Z"/><path class="cls-14" d="M289.43,160.93h0c-8.26-.26-14.86-4.38-21.23-8.37-7.23-4.53-14.06-8.8-22.71-7.1a.93.93,0,0,1-1.08-.73.92.92,0,0,1,.73-1.08c9.36-1.83,16.82,2.83,24,7.34,6.17,3.86,12.55,7.85,20.32,8.1a.92.92,0,0,1,0,1.84Z"/><path class="cls-14" d="M206.66,199.73a.92.92,0,0,1-.51-1.68c6.21-4.21,15.59-3.65,25.52-3.06,8.88.53,18.07,1.08,26-1.59a.92.92,0,1,1,.59,1.74c-8.26,2.79-17.62,2.23-26.68,1.69-9.61-.58-18.68-1.11-24.38,2.75A1,1,0,0,1,206.66,199.73Z"/><path class="cls-14" d="M341.64,154.12a.91.91,0,0,1-.87-.61c-1.76-5.06-1.93-9.91-2.07-14.2-.27-7.84-.48-14-9.17-19.19a.92.92,0,0,1-.32-1.26.93.93,0,0,1,1.26-.33c9.56,5.67,9.81,13,10.07,20.72.15,4.36.3,8.86,2,13.65a.91.91,0,0,1-.56,1.17A.84.84,0,0,1,341.64,154.12Z"/><path class="cls-14" d="M381.77,181.11h-.18a.92.92,0,0,1-.73-1.08c1.42-7.25,6.91-11.73,11.76-15.67,4.13-3.36,8-6.54,8.61-10.82a.92.92,0,1,1,1.83.24c-.68,5-4.85,8.41-9.28,12-4.82,3.93-9.82,8-11.11,14.59A.92.92,0,0,1,381.77,181.11Z"/><path class="cls-14" d="M396.29,219.26a30.14,30.14,0,0,1-8-1.1.92.92,0,0,1-.64-1.13.92.92,0,0,1,1.13-.65c8.79,2.4,15.47.11,21.93-2.1,8.74-3,17.77-6.08,31.29,3.08a.92.92,0,1,1-1,1.52c-12.76-8.64-21-5.83-29.67-2.85C406.66,217.62,401.89,219.26,396.29,219.26Z"/><path class="cls-14" d="M423.24,284.72a.91.91,0,0,1-.81-.48c-7.7-13.9-17.92-12.83-28.74-11.7-6.62.69-13.47,1.4-19.37-1.84a.92.92,0,1,1,.89-1.61c5.39,3,11.66,2.31,18.29,1.61,10.94-1.14,22.25-2.31,30.54,12.65a.91.91,0,0,1-.36,1.25A.88.88,0,0,1,423.24,284.72Z"/><path class="cls-14" d="M207.76,318.66h-.14a.92.92,0,0,1-.77-1c2.54-16.49,16.27-19.36,29.54-22.14,8.31-1.74,16.16-3.39,21-8.23a.92.92,0,0,1,1.3,1.3c-5.25,5.23-13.73,7-21.94,8.73-12.66,2.65-25.75,5.39-28.1,20.62A.91.91,0,0,1,207.76,318.66Z"/><path class="cls-14" d="M325.59,299.06a1.27,1.27,0,0,1-.26,0,.92.92,0,0,1-.62-1.14c.05-.19,5.3-18.77-4.9-29.09-1.08-1.08-2.18-2.17-3.25-3.22-9.94-9.76-19.32-19-17.34-38.63a.92.92,0,0,1,1.84.18c-1.9,18.76,7.18,27.69,16.79,37.14,1.07,1.05,2.18,2.14,3.27,3.24,11,11.09,5.59,30.09,5.36,30.89A.93.93,0,0,1,325.59,299.06Z"/><path class="cls-14" d="M280.11,347.54a.91.91,0,0,1-.81-.49c-10.85-20.72-4.86-27.78,2.73-36.72,4.8-5.65,10.24-12.06,12.33-23.47a.92.92,0,1,1,1.81.33c-2.17,11.9-7.78,18.51-12.73,24.34-7.42,8.73-12.78,15-2.51,34.66a.92.92,0,0,1-.82,1.35Z"/><path class="cls-14" d="M192.13,142.19a.92.92,0,0,1-.3-1.79c15.45-5.29,31.54-2.61,32.22-2.49a.91.91,0,0,1,.75,1.06.92.92,0,0,1-1.06.75c-.17,0-16.32-2.71-31.31,2.42A.79.79,0,0,1,192.13,142.19Z"/><path class="cls-14" d="M153.51,196.46a.92.92,0,0,1-.43-1.74c12.29-6.4,28.86-2.28,29.56-2.1a.92.92,0,1,1-.46,1.78c-.16,0-16.59-4.12-28.25,1.95A.91.91,0,0,1,153.51,196.46Z"/><path class="cls-14" d="M154.61,315.38h-.07a.91.91,0,0,1-.85-1c1.05-14.86,17.32-18.53,17.49-18.56a.92.92,0,0,1,.39,1.8,26.19,26.19,0,0,0-7.75,3.39c-5.11,3.33-7.9,7.87-8.29,13.5A.93.93,0,0,1,154.61,315.38Z"/><path class="cls-14" d="M209.82,177.7a.92.92,0,0,1-.56-.19c-8-6.07-16.47-9.13-23.35-8.38a.92.92,0,0,1-.2-1.83c7.34-.8,16.33,2.39,24.67,8.74a.92.92,0,0,1,.17,1.29A.91.91,0,0,1,209.82,177.7Z"/><path class="cls-14" d="M178,327.72a.75.75,0,0,1-.26,0,.92.92,0,0,1-.62-1.15c1-3.41,8.08-11.91,20.45-17a.93.93,0,0,1,.71,1.71c-11.66,4.8-18.49,12.81-19.4,15.83A.92.92,0,0,1,178,327.72Z"/><path class="cls-14" d="M335.66,202.09a.92.92,0,0,1-.82-.51.93.93,0,0,1,.4-1.24c14.45-7.35,26.77-26.79,29.3-46.21a.93.93,0,0,1,1-.79.91.91,0,0,1,.79,1c-2.6,20-15.34,40-30.29,47.62A1.07,1.07,0,0,1,335.66,202.09Z"/><path class="cls-14" d="M319.09,210.89a.92.92,0,0,1-.9-.74c-2.91-14-19-30.31-36.29-31.1a.92.92,0,0,1,.08-1.84c18.07.82,35,17.87,38,32.57a.91.91,0,0,1-.71,1.09Z"/><path class="cls-13" d="M180.07,258.39c12.31-9,17.74-14.11,45.23,4.33,33.87,22.73,9,183.22,9,183.22L220.63,428.2l-8.8,25.48-10-21-11.13,23.22-9.19-26.57L169,453l-7.8-26.59-9.85,17.67S131.25,344,139.26,298.22c6.06-34.59,16.91-31.32,16.91-31.32S167.79,267.81,180.07,258.39Z"/><path class="cls-6" d="M190.68,456.79h-.06a.9.9,0,0,1-.81-.62l-8.5-24.56-11.52,21.82a.92.92,0,0,1-1.7-.17l-7.19-24.48-8.77,15.75a.94.94,0,0,1-.95.46.91.91,0,0,1-.76-.73c-.2-1-20-100.81-12.07-146.2,5.08-29,13.62-32.16,17.06-32.16a3.91,3.91,0,0,1,.9.09H157c2.72,0,12.38-.6,22.48-8.34l1.05-.77c5.75-4.21,10.29-7.55,16.71-7.55,6.83,0,15.36,3.78,28.54,12.62,14.33,9.61,20.26,43.58,17.6,100.94-2,42.52-8.15,82.78-8.22,83.19a.91.91,0,0,1-.68.75.93.93,0,0,1-1-.33l-12.61-16.39L212.7,454a.9.9,0,0,1-.81.62.92.92,0,0,1-.89-.52l-9.19-19.29-10.3,21.48A.93.93,0,0,1,190.68,456.79Zm-9.19-28.41h.07a.93.93,0,0,1,.8.62l8.45,24.45L201,432.26a.94.94,0,0,1,.83-.53h0a.94.94,0,0,1,.83.53l9,19,8.06-23.36a.94.94,0,0,1,.72-.61.92.92,0,0,1,.88.35l12.33,16c1.3-8.87,6.18-44,7.88-80.86,1.8-39,.35-87.81-16.79-99.31-12.68-8.51-21.16-12.3-27.51-12.3-5.82,0-9.93,3-15.62,7.19l-1,.76c-10.55,8.08-20.72,8.71-23.59,8.71h0c-.58,0-.92,0-.93,0a.71.71,0,0,1-.2,0h0a2.49,2.49,0,0,0-.49,0c-1.65,0-10.14,1.48-15.24,30.64-7.19,41.07,8.58,127.34,11.57,143L160.36,426a.94.94,0,0,1,.91-.47.91.91,0,0,1,.78.66l7.17,24.42,11.45-21.7A.94.94,0,0,1,181.49,428.38Z"/><path class="cls-15" d="M237.06,271.71h0a32.75,32.75,0,1,1,9.14-1.31A32.89,32.89,0,0,1,237.06,271.71Zm0-57.41a24.69,24.69,0,0,0,0,49.38h0a25,25,0,0,0,6.9-1,24.69,24.69,0,0,0-6.88-48.39Z"/><path class="cls-15" d="M154.8,272.51h0A32.74,32.74,0,1,1,164,271.2,32.87,32.87,0,0,1,154.8,272.51Zm0-57.41a24.69,24.69,0,0,0,0,49.37h0a24.69,24.69,0,0,0,0-49.37Z"/><path class="cls-15" d="M185,245a4,4,0,0,1-1-7.91c8.89-2.31,14.72-2.34,23.11-.14a4,4,0,1,1-2,7.77c-7-1.85-11.5-1.81-19,.15A4,4,0,0,1,185,245Z"/><path class="cls-15" d="M266.53,236a4,4,0,0,1-2.82-6.88c3.15-3.1,6.65-6.79,10.35-10.68,18.79-19.78,42.18-44.4,65.65-43.28,10,.48,19,5.68,26.67,15.48a4,4,0,1,1-6.32,4.95c-6.26-8-13-12-20.73-12.4-.37,0-.75,0-1.13,0-19.54,0-41.9,23.54-58.31,40.81-3.75,4-7.3,7.68-10.55,10.88A4,4,0,0,1,266.53,236Z"/><path class="cls-15" d="M222.84,243.2l-.16,0a.93.93,0,0,1-.75-1.07,12.25,12.25,0,0,1,10.36-10.31c6.12-1,12.35,1.84,15.16,6.92a.92.92,0,0,1-1.61.89c-2.4-4.34-8-6.86-13.25-6a10.33,10.33,0,0,0-8.84,8.82A.92.92,0,0,1,222.84,243.2Z"/><path class="cls-15" d="M147.67,244.84a.78.78,0,0,1-.22,0,.92.92,0,0,1-.68-1.11c.9-3.67,4.73-6.89,9.33-7.83a13.27,13.27,0,0,1,13.63,5.45.92.92,0,1,1-1.48,1.1,11.47,11.47,0,0,0-11.78-4.74c-3.93.8-7.18,3.45-7.91,6.46A.92.92,0,0,1,147.67,244.84Z"/><path class="cls-9" d="M427.5,284c9,48-40,74-40,74a.23.23,0,0,1-.1,0l-3.83,3.47a3.87,3.87,0,1,1-5.31-5.64l.23-.08a.38.38,0,0,0,0-.52.37.37,0,0,0-.5-.08l-.61.53a3.88,3.88,0,0,1-4.28-6.47s-1.59.94,1.65-1.2a.6.6,0,0,0,.22-.77.61.61,0,0,0-.74-.31l-1.13.41a3.87,3.87,0,0,1-2.36-7.38s-1,.26,2.71-.91c.19-.06.72-.2.72-.46s-.72-.59-.89-.83a2.86,2.86,0,0,1-.43-2.09,6.07,6.07,0,0,1,.62-2,4.92,4.92,0,0,1,2.88-2.49,5.61,5.61,0,0,1,3.9.4,5.9,5.9,0,0,1,1.61,1,9.83,9.83,0,0,0,1.11.86c.69-.47,1.37-1,2-1.46a62,62,0,0,0,6.46-5.55,52.54,52.54,0,0,0,6.2-7.28,44.27,44.27,0,0,0,4.95-9.06,41.1,41.1,0,0,0,2.72-10.9,45.7,45.7,0,0,0-.51-12.79c-6.81-38.25-47.13-42.33-47.13-42.33s-2.43-4.33,1-11.29,8.94-8.81,8.94-8.81S417.34,229.66,427.5,284Z"/><path class="cls-10" d="M380.9,363.5a4.79,4.79,0,0,1-4.54-6.33,4.48,4.48,0,0,1-1.1.13,4.8,4.8,0,0,1-3.37-8.21,1.9,1.9,0,0,1,.64-.62,5.85,5.85,0,0,1-.59,0,4.8,4.8,0,0,1-1.66-9.3,3.66,3.66,0,0,1,.58-.22c.33-.12.88-.3,1.74-.57l-.06-.08a3.79,3.79,0,0,1-.59-2.73,7.28,7.28,0,0,1,.72-2.3,5.9,5.9,0,0,1,3.44-2.95,6.55,6.55,0,0,1,4.53.44,7.07,7.07,0,0,1,1.85,1.19l.51.42c.55-.38,1-.73,1.48-1.07a64.06,64.06,0,0,0,6.37-5.46,52.44,52.44,0,0,0,6.09-7.16,44.24,44.24,0,0,0,4.85-8.87,40.15,40.15,0,0,0,2.65-10.66,44.29,44.29,0,0,0-.5-12.53c-2.77-15.57-11.4-27.3-25.64-34.86a63.1,63.1,0,0,0-20.67-6.72.9.9,0,0,1-.71-.46c-.11-.2-2.63-4.84,1-12.15s9.22-9.19,9.46-9.27a.92.92,0,0,1,.4,0,72.56,72.56,0,0,1,26.48,9.72c12.65,7.56,28.85,22.55,34.16,51,4.7,25.15-6.57,44.21-16.85,55.77a95.69,95.69,0,0,1-23.64,19.24l-.05,0-3.69,3.35A4.77,4.77,0,0,1,380.9,363.5Zm-2.15-6.81a3,3,0,0,0,4.18,4.17l3.84-3.49a.92.92,0,0,1,.35-.19h0a94.7,94.7,0,0,0,23.11-18.85,71.15,71.15,0,0,0,13.95-22.88,59,59,0,0,0,2.41-31.27c-5.19-27.74-21-42.35-33.3-49.72A72.74,72.74,0,0,0,367.78,225a17.08,17.08,0,0,0-8.22,8.28c-2.62,5.28-1.67,8.86-1.22,10a65,65,0,0,1,20.82,6.87c10.16,5.38,23,16,26.6,36.16a46.4,46.4,0,0,1,.51,13,42,42,0,0,1-2.77,11.15,45.94,45.94,0,0,1-5.05,9.25,54.25,54.25,0,0,1-6.31,7.41,64.38,64.38,0,0,1-6.56,5.63c-.61.46-1.27.93-2.07,1.48a.89.89,0,0,1-.52.16c-.27,0-.48,0-1.72-1.09a5,5,0,0,0-1.38-.88,4.69,4.69,0,0,0-3.25-.36,4.08,4.08,0,0,0-2.33,2,5.2,5.2,0,0,0-.53,1.7,2,2,0,0,0,.25,1.39l.19.14a1.57,1.57,0,0,1,.89,1.26c0,.91-.95,1.21-1.31,1.32h-.05c-1.52.49-2.2.71-2.5.82a1,1,0,0,1-.21.1,2.93,2.93,0,0,0-1.72,1.46,2.89,2.89,0,0,0-.19,2.25,2.93,2.93,0,0,0,2.81,2.05,2.73,2.73,0,0,0,.9-.14l1.1-.4a1.53,1.53,0,0,1,1.34,2.72c-.65.43-1.09.72-1.37.92a.93.93,0,0,1-.28.28,3,3,0,0,0-.83,4.09,2.94,2.94,0,0,0,4,.87l.56-.49.1-.07a1.34,1.34,0,0,1,1.74.28,1.3,1.3,0,0,1-.13,1.76,1,1,0,0,1-.33.2Z"/><path class="cls-11" d="M367.67,224.07s49.67,5.59,59.83,59.93c5.88,31.45-13.13,53.47-26.93,64.91-6.8-4.78-12.76-11.57-13.34-18.69.74-.66,3.55-3,4.26-3.69a52.54,52.54,0,0,0,6.2-7.28,44.27,44.27,0,0,0,4.95-9.06,41.1,41.1,0,0,0,2.72-10.9,45.7,45.7,0,0,0-.51-12.79c-6.81-38.25-47.13-42.33-47.13-42.33s-2.43-4.33,1-11.29S367.67,224.07,367.67,224.07Z"/><path class="cls-12" d="M400.57,349.83a.92.92,0,0,1-.53-.16c-8.19-5.76-13.2-12.82-13.73-19.38a1,1,0,0,1,.3-.76c.28-.25.85-.73,1.49-1.26,1-.88,2.32-2,2.75-2.39a52.44,52.44,0,0,0,6.09-7.16,44.24,44.24,0,0,0,4.85-8.87,40.15,40.15,0,0,0,2.65-10.66,44.29,44.29,0,0,0-.5-12.53c-2.76-15.55-11.37-27.27-25.58-34.83a63.5,63.5,0,0,0-20.73-6.75.9.9,0,0,1-.71-.46c-.11-.2-2.63-4.84,1-12.15s9.22-9.19,9.46-9.27a.79.79,0,0,1,.4,0,72.2,72.2,0,0,1,26.48,9.71c12.65,7.56,28.85,22.55,34.16,51a61,61,0,0,1-6.18,40.56,84.21,84.21,0,0,1-21.07,25.23A.93.93,0,0,1,400.57,349.83ZM388.19,330.6c.67,5.73,5.12,11.93,12.34,17.15a82.1,82.1,0,0,0,20.07-24.22,59.11,59.11,0,0,0,6-39.36c-5.19-27.74-21-42.35-33.3-49.72A72.74,72.74,0,0,0,367.78,225a17.08,17.08,0,0,0-8.22,8.28c-2.62,5.28-1.67,8.86-1.22,10a65,65,0,0,1,20.82,6.87c10.16,5.38,23,16,26.6,36.16a46.4,46.4,0,0,1,.51,13,42,42,0,0,1-2.77,11.15,45.94,45.94,0,0,1-5.05,9.25,54.25,54.25,0,0,1-6.31,7.41c-.47.47-1.74,1.54-2.85,2.48Z"/><path class="cls-12" d="M409.65,341.3a.91.91,0,0,1-.5-.15c-3.74-2.46-12.18-10.71-15-17.75a.91.91,0,0,1,.51-1.19.92.92,0,0,1,1.2.51c2.63,6.59,10.82,14.61,14.29,16.89a.92.92,0,0,1-.51,1.69Z"/><path class="cls-15" d="M190.61,291.56c-2.52,0-14.3-.82-21.51-15.5a.92.92,0,1,1,1.65-.81c2.95,6,7,10.26,12.16,12.63a17.74,17.74,0,0,0,8,1.83,49.22,49.22,0,0,0,5.8-1,.92.92,0,0,1,.39,1.8,53.65,53.65,0,0,1-6,1.06Z"/><path class="cls-15" d="M191.32,291.43a.92.92,0,0,1-.36-.07,11,11,0,0,1-6.47-10.5.92.92,0,1,1,1.84.11,9.12,9.12,0,0,0,5.35,8.69.92.92,0,0,1-.36,1.77Z"/><path class="cls-15" d="M185.92,299.93a.52.52,0,0,1-.17,0,.92.92,0,0,1-.74-1.07,12.46,12.46,0,0,1,6.85-8.87.93.93,0,0,1,1.22.45.91.91,0,0,1-.44,1.22,10.54,10.54,0,0,0-5.81,7.54A.93.93,0,0,1,185.92,299.93Z"/><path class="cls-15" d="M196.9,290.4a.93.93,0,0,1-.85-.55.92.92,0,0,1,.48-1.21A6,6,0,0,0,199.8,281a.91.91,0,0,1,.54-1.18.92.92,0,0,1,1.19.53,7.89,7.89,0,0,1-4.27,10A.92.92,0,0,1,196.9,290.4Z"/><g id="Artwork_2" data-name="Artwork 2"><g class="cls-16"><g class="cls-16"><path class="cls-17" d="M250.83,34.75c-.52,1.51-2,3.77-6,3.37a24.49,24.49,0,0,1,6-3.37"/><path class="cls-17" d="M272.48,66.66c-1.87-11.41-16-4.92-16-4.92a15.8,15.8,0,0,1,7.18-3.27,5.51,5.51,0,0,1-2-3.8c-7.12.64-7-3.58-8.29-9-.68-2.8-2-3.71-3.36-3.91-1.8,2.1,1.23,9.14-3,10,3.17-2.17.64-7.41,1.21-9.65a3.57,3.57,0,0,0-1.17,0c-7.26,3.68-2.91,12-2.74,12.35-4.52-4-8.24.65-9,1.68A24.3,24.3,0,0,0,237.4,67.4c2.48-.51,5.95-2.84,1.7-12.66a35.61,35.61,0,0,1,2.51,4.48c1.44,4.73,0,9.37-3.81,9a24.6,24.6,0,0,0,9.72,10.42,7.93,7.93,0,0,1,.26-1.15,3.43,3.43,0,0,0,.13-.54c-3.71-.56-6.53-5.08-4.16-10.81,0,.24-1.86,12.38,9,9,0,0-2.74,1.77-3.55,1.84-.14,0-.28,0-.43,0,0,.21-.06.46-.11.76a11,11,0,0,0-.12,1.41A24.47,24.47,0,0,0,256,81.64l2.18.33a6.3,6.3,0,0,1-1.64-4.19c0-5,1.93-7.74,8.67-6.74s7.4-3,7.27-4.38m-19.82-2c-.66,2.94-2.91,4.62-6.51,2.79,0,0,9.75,1.3,3.67-12.76a35.92,35.92,0,0,1,2.51,4.47,11.67,11.67,0,0,1,.48,4.63c3.34,3.21,11.78-1.31,15.69,3.66-6-4.32-14,1.43-15.84-2.79"/><path class="cls-17" d="M288.23,37.19l-6.05-.94c3.7,3.2,4.75,8.83.38,12.37.15-.3,6.61-13.71-9.1-12.81,3.94,3.76,5.25,9.72.16,12.54.23-.3,8.59-11.4-10.22-15l.07,0h0a24.65,24.65,0,0,0-5-.25,5.24,5.24,0,0,1-3.11,5.3,5.13,5.13,0,0,0,2.12-5.24,25.2,25.2,0,0,0-6,1.36c.95,5-4.5,5.45-8.42,5.19a24.36,24.36,0,0,0-7.22,13.09c1.9-2.08,5.67-1.85,5.67-1.85-.7-2.11-.24-8.13,4.45-9.71a7,7,0,0,1,2.89-.1c3.07-1,5.38,1.29,6.23,6.2,1.17,6.72,5.13,6.11,6.44,5.54,10-5.25.12-16.19-.33-16.67,13,9.08,1.84,18.5,1.84,18.5a5.6,5.6,0,0,0,2.84,3.7c6.16.56,8.91,7.4,8.91,7.4,3.47.51,6-3.32,6-3.32-1.31,5.89-6.48,4.47-6.48,4.47-1.63,7-5.6,5.49-11.18,5s-5.2,3.83-5.43,4.91a7,7,0,0,0,3.85,5.58l6.36,1,.66-.07-.24.14,4.37.67c.3-2.79-1.21-6.31-9.64-7.87,0,0,3.11-.69,4.17-.36a9.47,9.47,0,0,1,3.62,2.1c4.67-2,10.78-.26,10.18,5.11,0,0-2.22-7.5-9.22-4.11a7.52,7.52,0,0,1,1.91,5.29l7.11,1.1L283,70.94l-4.12-.62,5.64-9.2Zm-4.52,19.68a4.52,4.52,0,0,0-3.15-5.69,5.12,5.12,0,0,1-.53,1.13,7.31,7.31,0,0,1-5.39,3.46c1.65,1.13,3.53,3.14,1.67,5.8.07-.23,1.32-4.6-3.87-5.89v0a5.71,5.71,0,0,1-4.38-4.4c.27.34,7.86,9.74,12.08-3a2.64,2.64,0,0,1,.62,2.07c1.54.77,5.36,3.12,2.95,6.56"/><path class="cls-17" d="M363.49,78.7a22.68,22.68,0,0,1-2.61,4.9l-1.77,2.2-.77.79a22.06,22.06,0,0,1-10.63,5.81l-.51.12-2.27.33a22.34,22.34,0,0,1-5.48-.16l-23.32-3.6.39-2.54,21.9,3.38a22.26,22.26,0,0,0,5.47.16l2.28-.33.5-.12a22,22,0,0,0,10.63-5.81l.77-.79,1.77-2.19a22.13,22.13,0,0,0,2.61-4.91,27.68,27.68,0,0,0,1.32-5.37A22,22,0,0,0,363,61.8l.09.15a22.06,22.06,0,0,1,1.72,11.38,27.68,27.68,0,0,1-1.32,5.37"/><polygon class="cls-18" points="316.63 60.82 311.76 68.78 292.5 100.25 300.01 69.07 289.6 67.51 286.07 66.98 290.9 59.08 310.2 27.55 302.69 58.73 313.07 60.29 316.63 60.82"/><path class="cls-17" d="M285.24,71.27,282.65,88l-27-4.17A26.69,26.69,0,0,1,249.27,82l-2.35-1.13-.64-.33v0a26.62,26.62,0,0,1-10.12-10.58l-.6-1.19-1.2-3.07a27.72,27.72,0,0,1-1.24-6.63,33.2,33.2,0,0,1,.45-6.67,26.36,26.36,0,0,1,6.18-12.53l3.76-3.51a54.14,54.14,0,0,1,5.33-3.25l1.73-.64,3.8-1.07c.54-.11,1.64-.39,1.64-.39l3.15-.22s3.11.14,4.64.38l27,4.17-3.22,20.86,5.06-8.28,2.43-15.71-30.69-4.74a30.4,30.4,0,1,0-9.28,60.09l30.68,4.74,1.81-11.73.12-.74,1.24-8Z"/><path class="cls-17" d="M347.58,40.3l-30.69-4.74L313.73,56l3.71.56L320,39.83,347,44c1.54.24,4.55,1,4.55,1l2.93,1.16s1,.6,1.45.87l3.3,2.17,1.46,1.13a54.69,54.69,0,0,1,4.09,4.71l2.53,4.48a26.44,26.44,0,0,1,2.12,13.81,32.7,32.7,0,0,1-1.59,6.49,27,27,0,0,1-3.18,6l-2.07,2.57-.93.94a26.61,26.61,0,0,1-12.84,7v0l-.71.13-2.58.37a26.94,26.94,0,0,1-6.65-.19l-27-4.17,3.22-20.84L310,80l-.5,3.23-.11.73-1.81,11.73,30.69,4.73a30.4,30.4,0,1,0,9.28-60.08"/><path class="cls-13" d="M367.12,73.06a24.24,24.24,0,0,0-1.89-12.49l-2.41-4.25a51.27,51.27,0,0,0-3.68-4.23l-1.27-1L354.72,49c-.4-.22-1-.59-1.28-.76l-2.63-1c-.88-.24-3.06-.78-4.16-1L322,42.47l-2.22,14.4,4.05.6-5.55,9.09-.74,4.73h0l-3,19.29,24.69,3.82a24.76,24.76,0,0,0,6,.18l2.48-.36.54-.09.05,0A24.4,24.4,0,0,0,360,87.66l.82-.84,1.95-2.41a25.32,25.32,0,0,0,2.87-5.4,29.23,29.23,0,0,0,1.45-6m-3.63,5.64a22.68,22.68,0,0,1-2.61,4.9l-1.77,2.2-.77.79a22.06,22.06,0,0,1-10.63,5.81l-.51.12-2.27.33a22.34,22.34,0,0,1-5.48-.16l-23.32-3.6.39-2.54,21.9,3.38a22.26,22.26,0,0,0,5.47.16l2.28-.33.5-.12a22,22,0,0,0,10.63-5.81l.77-.79,1.77-2.19a22.13,22.13,0,0,0,2.61-4.91,27.68,27.68,0,0,0,1.32-5.37A22,22,0,0,0,363,61.8l.09.15a22.06,22.06,0,0,1,1.72,11.38,27.68,27.68,0,0,1-1.32,5.37"/></g></g></g></g></g></svg>