<svg xmlns="http://www.w3.org/2000/svg" viewBox="0 0 500 500"><defs><style>.cls-1{isolation:isolate;}.cls-2{fill:#ccc;}.cls-3{fill:#27315b;}.cls-4{fill:#f9ad9b;}.cls-5{fill:#fb867d;}.cls-6{fill:#fcb090;}.cls-7{opacity:0.2;}.cls-10,.cls-7{mix-blend-mode:multiply;}.cls-10,.cls-8{fill:#d6725f;}.cls-9{fill:#fcd7c6;}.cls-10,.cls-16{opacity:0.3;}.cls-11{fill:#af3f3f;}.cls-12,.cls-16{fill:#fff;}.cls-13{fill:#dd6868;}.cls-14{fill:#252b4f;}.cls-15{opacity:0.5;}.cls-17{fill:#fafafc;}.cls-18{fill:#6998b2;}</style></defs><g class="cls-1"><g id="Layer_1" data-name="Layer 1"><path class="cls-2" d="M496.57,461.45c.24,9-108.92,19.22-243.81,22.79S8.32,483.39,8.08,474.37,117,455.15,251.9,451.58,496.34,452.43,496.57,461.45Z"/><path class="cls-3" d="M127.59,457.21c2.67-5.33,3-11.95-1.3-16.1-5.13-4.94-12.7-7.55-19.52-9-14.84-3.23-30,1.19-44.88,1-3.55,0-8.62-.73-12,.79.48-2,.6-5.63-.9-7.41-3.21-3.83-7.31,1.08-7,4.6-.09-2.76-.13-12.72-3.75-12.75s-4.07,6.62-4.53,8.87c-.69-4-2.23-15.32-8.59-13.91-6,1.34-3.53,10.19-3.71,14.12-1.65-1.82-3.49-7.16-7.14-5.64-3.88,1.6-1,9.66-.08,12.41-2.22-3.13-8.28-5.49-9.24,0-.93,5.36,5.41,13.72,7.71,18.37,3,6.08,7.27,9.33,14,10.24a329.11,329.11,0,0,0,35.24,2.9c11.42.3,23.61,1.58,35.34,1.3,7.5-.18,20.07,1.25,26.2-4.19A18.51,18.51,0,0,0,127.59,457.21Z"/><path class="cls-3" d="M392.45,434.28c12.53-1.84,26-7.52,31.53-11,2.87-1.82,31.86-25.91,29.51-28,7.93,6.9,21.15,17.5,32.76,15,4.19-.92,10.13-6,10.49-10.61.38-4.86-5.73-8.2-8.95-10.76-5.29-4.19-11-7.58-16.59-11.39-5-3.4-10.66-9-17-9.61-8.94-.84-9.34,7.4-13.86,12.6a139.68,139.68,0,0,1-16.44,15.79A84.58,84.58,0,0,1,404.09,408c-9.95,4.31-42-2.11-36.91,16.43C369.91,434.36,380.76,436,392.45,434.28Z"/><path class="cls-4" d="M81.35,274.73s-39.37,1.7-28.5,40.16c0,0-28.62,10.61-11.35,43,0,0-14.52,43,24.74,62.29.71.35,7.26,6.92,7.53,8.07,2.33,9.68.89,19.84,7.81,27.11,18.18,19.09,56.82,13.14,80.74,17.14,32.24,5.39,64.23,3.59,96.81,2.73,28.84-.76,56.17-7.14,84.47-12.65,17.7-3.45,38.41-5.81,50.81-20.5,11.24-13.33,19.31-29.51,15.26-47.29,0,0,19.26-16.93,4.36-58.58,0,0,2.09-20.41-18.66-35,0,0,.26-40.08-39.91-43.61,0,0-17.21-54.73-79.65-31.4,0,0-9.68-18.13-36.33-7.58,0,0-18.78-14.61-44.57,3.81,0,0-47.6-11.88-65,25.37C129.9,247.83,93.67,244.19,81.35,274.73Z"/><path class="cls-5" d="M81.35,272.27a42.07,42.07,0,0,0-20,6.23c-13,8.17-14.71,23.22-10.92,37.05.58-1,1.15-2,1.72-3A31.48,31.48,0,0,0,38.57,323c-8.25,10.85-5,25,.81,36.13-.08-.63-.17-1.26-.25-1.89a58.58,58.58,0,0,0,2.65,42.87,46.15,46.15,0,0,0,11.06,14.18c4.76,4.2,10.57,6.31,14.63,10.39,1.56,1.56,3.75,3.46,4.16,5.23,1,4.26,1.2,8.66,1.87,13a26.67,26.67,0,0,0,10.86,18.19c11.11,8.26,25.53,10.24,39,11.28,14.5,1.12,28.88,1.16,43.3,3.3,20.3,3,40.86,3.28,61.34,2.89s40.82-.7,61.06-3.44c16.11-2.18,32-5.53,48-8.72,13.05-2.6,26.56-4.25,39.05-9,12.32-4.69,20.89-13.14,27.91-24.12,7.47-11.7,11-25.39,8.09-39.11-.22.8-.43,1.59-.64,2.39,2.91-2.58,5-6.38,6.55-9.88,4.28-9.61,4.86-20.39,3.52-30.71a96,96,0,0,0-2-10.48c-.54-2.18-1.2-4.34-1.88-6.49-.25-.78-1.12-2.18-1.06-3a33.49,33.49,0,0,0-.55-7.74c-1.95-12.07-9.58-22.16-19.35-29.16.41.71.82,1.42,1.22,2.13a52,52,0,0,0-5.45-22.19c-7-14.61-21.16-22.38-36.92-23.89l2.38,1.81c-3.07-9.68-9.56-18.81-17-25.53-17.8-16-42.18-15.78-63.74-8.27q-.94.33-1.89.69l2.78,1.13c-7.58-14-26.29-13.65-39.11-8.71l1.89.25c-3.79-2.92-8.88-4.52-13.52-5.31-12-2.05-23.76,2.28-33.53,9.11l1.9-.24a76.08,76.08,0,0,0-27.52-1.26c-17.47,2.24-32.56,11.59-40.28,27.75l2.13-1.22A58.26,58.26,0,0,0,109,247.61a45,45,0,0,0-30,26.46c-1.22,2.94,3.55,4.2,4.75,1.31,7.43-17.92,27.43-26.93,46.18-25.09a2.38,2.38,0,0,0,2.13-1.22,43.39,43.39,0,0,1,26.36-23.14c8.82-2.85,18.3-3.28,27.48-2.42a66,66,0,0,1,7.27,1.08q.56.1,1.11.24c1.58.39,2.75-.84,4-1.65a54.35,54.35,0,0,1,6.91-3.88c9.91-4.76,22.13-5.18,31.72.55.47.28.92.58,1.36.9,1.77,1.31,6.06-1.19,7.93-1.71a29.37,29.37,0,0,1,16.77,0c4.3,1.37,8.74,4.64,10.78,8.42a2.45,2.45,0,0,0,2.78,1.13c20.6-7.59,44-8.84,61.22,6.64,6.77,6.08,12.85,15,15.41,23a2.55,2.55,0,0,0,2.37,1.81c11.69,1.11,22.55,6.07,29.4,15.84a46.82,46.82,0,0,1,7.71,20.76,37.37,37.37,0,0,1,.34,4.49c0,2.47,4,4.25,5.63,5.71a41.14,41.14,0,0,1,7.6,9.09,36.9,36.9,0,0,1,5.26,14.86c.37,3,.06,5.42,1.05,8.32,4.53,13.29,6.81,28.18,2.45,41.83-1.4,4.38-3.7,9.15-7,12.06a2.49,2.49,0,0,0-.63,2.4c3.75,17.5-5,35.44-17.22,47.67-11.28,11.25-28.62,13.63-43.56,16.4-19.6,3.64-39,8.09-58.81,10.83-20.58,2.86-41.49,2.95-62.23,3.31s-41.86-.14-62.51-3.54c-13.66-2.24-27.64-1.71-41.42-2.84-13.44-1.1-28.4-3.58-38.23-13.66-6-6.15-5.31-16.14-6.74-24-.81-4.48-5-8.35-8.46-11.09-2.51-2-5.74-3.21-8.4-5a45,45,0,0,1-7.78-7,41,41,0,0,1-8.33-14.91c-2.68-8.35-2.84-17.48-1.37-26.08a55.31,55.31,0,0,1,1.47-6.39,3,3,0,0,0-.08-2.43,50,50,0,0,1-4.46-11.55,23.12,23.12,0,0,1,8.46-24.37A30.61,30.61,0,0,1,52.05,318c.47-.25.94-.47,1.42-.68s-.56.21,0,0a2.51,2.51,0,0,0,1.72-3c-3.34-12.19-2.15-24.94,9.44-32a37.71,37.71,0,0,1,16.69-5.08C84.51,277.05,84.52,272.12,81.35,272.27Z"/><path class="cls-5" d="M49.6,316.22c-.12,5.44-.72,11.16.76,16.47s5.64,9,9.83,12.18c4.9,3.72,12.15,6.36,14,12.83.77,2.68-.55,5.39-1.83,7.68-.66,1.19-3.22,5.45-5,4.42-3.31-1.89-6.29,3.22-3,5.11,6.32,3.6,11.8-3.58,14.19-8.63,3.27-6.92,1.31-13.56-4.2-18.64-5.32-4.9-12.82-7.4-16.94-13.59-3.32-5-2-12.22-1.91-17.83.09-3.82-5.82-3.81-5.91,0Z"/><path class="cls-5" d="M80.53,271.29c-9.42,11.29-4.67,29.25.49,41.32,5.31,12.44,16.33,27.88,31.53,27.31,3.8-.15,3.81-6.06,0-5.91-12.82.48-21.56-13.57-26.14-23.72a58.43,58.43,0,0,1-5.1-19.8c-.33-5,0-11,3.4-15,2.43-2.9-1.73-7.11-4.18-4.18Z"/><path class="cls-6" d="M125.59,283.41c7.48,9.66,29.59,1.19,36.63-5.56,7.07-6.1,10.14-14.07,12.52-23.33"/><path class="cls-5" d="M123.84,285.15c7.39,8.92,22,4.49,30.79.48,12.76-5.85,19.06-17.34,22.49-30.45.8-3.08-4-4.38-4.75-1.31-2.92,11.16-7.72,20.88-18.21,26.5-6.94,3.72-20.65,8.76-26.83,1.3-2-2.45-5.5,1.06-3.49,3.48Z"/><path class="cls-6" d="M205.39,245.83c4.8,7.76,3.78,18.95,2,27.53-.52,5.27-2.38,9.26-4.23,13.91-.61,2-3.06,8.62-1.85,4.65"/><path class="cls-5" d="M203.26,247.07c4.49,7.67,3.45,17.29,1.79,25.64a68.71,68.71,0,0,1-3.83,12.92c-.81,2-1.25,4.52-2.31,6.29l4.5.58c.33,1.37,0,1.17.31.07.91-3.05-3.84-4.34-4.74-1.31a4.66,4.66,0,0,0-.32,2.55,2.48,2.48,0,0,0,4.5.59c1.34-2.23,1.84-5,2.81-7.46a75.65,75.65,0,0,0,4.18-14.73c1.71-9.13,2.21-19.33-2.64-27.62-1.6-2.74-5.86-.26-4.25,2.48Z"/><path class="cls-6" d="M201.3,290c9.84-25.22,35.38-29.81,51-8.55"/><path class="cls-5" d="M203.67,290.6c3.81-9.48,10.91-17.84,21.29-19.92,10.06-2,19.47,4.26,25.27,12,1.88,2.5,6.16.05,4.25-2.49-7.27-9.65-17.77-16.1-30.16-14.34s-21,12.54-25.4,23.48c-1.18,2.95,3.58,4.22,4.75,1.31Z"/><path class="cls-6" d="M250.89,277.47c11.66-6.22,23.27-14.41,40.33-14.86,14.44-.38,25.71,3.26,38.35,9.5"/><path class="cls-5" d="M252.13,279.6c11.15-6,21.82-12.71,34.67-14.23,14.55-1.73,28.6,2.54,41.53,8.86,2.84,1.39,5.34-2.86,2.49-4.25-13.85-6.77-28.47-11.06-44-9.54-13.77,1.36-25.26,8.52-37.15,14.9-2.8,1.51-.31,5.76,2.48,4.26Z"/><path class="cls-5" d="M347.88,266a30.68,30.68,0,0,0-31.16,19.27,21.28,21.28,0,0,0,.66,16.64c3,6.49,9.84,10.26,16.39,12.28,3.65,1.13,5.2-4.57,1.57-5.69-5.34-1.66-10.26-4.45-12.86-9.57-2-4-1.38-8.64.14-12.62,3.86-10,15.06-15.24,25.26-14.4,3.8.31,3.77-5.6,0-5.91Z"/><path class="cls-5" d="M360.38,316.29a31.68,31.68,0,0,0-22.18,8.29c-6.25,5.88-8.69,14.61-8.27,23l4.44-2.55c-10.48-5.71-21.45-2.14-29.4,6-3.31,3.39-5.27,8.06-7.34,12.24-1.75,3.55-3.45,8.76,2.33,9.16,3.81.27,3.78-5.64,0-5.91q1.47,3.43,2,1.35c.38-.86.83-1.69,1.25-2.53.69-1.41,1.36-2.83,2.1-4.22a31.48,31.48,0,0,1,5.54-7.55c5.47-5.55,13.67-7.19,20.56-3.43,1.87,1,4.56-.23,4.45-2.55-.36-7.06,1.47-13.72,6.54-18.8,4.71-4.72,11.49-6.58,18-6.56,3.81,0,3.81-5.9,0-5.91Z"/><path class="cls-5" d="M314.69,347.59c4-10.84,1.74-24.47-8-31.41-3.11-2.21-6.06,2.91-3,5.1,7.59,5.41,8.28,16.63,5.29,24.73-1.32,3.59,4.4,5.12,5.7,1.58Z"/><path class="cls-5" d="M149.26,311.51c-6.95,5.74-13,12.42-16.49,20.83-3.65,8.89-1.7,18.5,3.34,26.38,3.71,5.81,9.65,10.58,15.39,14.25,4.79,3.07,11.82,6,16.62,1.45,2.77-2.63-1.42-6.81-4.17-4.18s-9.09-2.06-11.36-3.63a43.23,43.23,0,0,1-12-11.86c-9.55-15,1.23-29.45,12.86-39.06,2.95-2.43-1.26-6.58-4.17-4.18Z"/><path class="cls-5" d="M134.42,346.32c-9.61,3.39-15.95,13.63-19.65,22.56-3.24,7.84-5,20.16,4.28,24.61,3.43,1.64,6.43-3.46,3-5.1-6.84-3.27-3.58-13.29-1.31-18.55,2.86-6.6,8.06-15.28,15.26-17.82,3.57-1.26,2-7-1.57-5.7Z"/><path class="cls-5" d="M86.14,399c3.42-11.66,17-16.42,28.12-14.54,3.72.63,5.32-5.06,1.57-5.7-14.33-2.42-31,3.69-35.38,18.67-1.08,3.67,4.63,5.22,5.69,1.57Z"/><path class="cls-5" d="M128.21,424.77a27.4,27.4,0,0,1,20-18.61c9.1-2,16.31,3.4,21.14,10.52,4.2,6.18,7.58,13.22,13.3,18.22,6.33,5.52,14,5.41,21.35,2.08,3.47-1.57.46-6.66-3-5.1s-7.38,2.43-11,.86c-3.19-1.39-5.64-4.16-7.68-6.89-4.72-6.35-8-13.84-13.76-19.38-16-15.36-40.43-1.62-46.08,16.73-1.12,3.65,4.58,5.2,5.7,1.57Z"/><path class="cls-5" d="M178.52,464.17c1.73-11.13,14.24-17.42,24.63-17.2,13.72.29,24,11.56,28.95,23.51,1.43,3.48,7.15,2,5.7-1.57-6-14.72-17.52-26.39-33.9-27.81-12.92-1.13-29,8-31.08,21.5-.58,3.72,5.11,5.33,5.7,1.57Z"/><path class="cls-5" d="M250.34,459.68c3.48-7.72,8.6-14.25,16.08-18.4,6.84-3.8,14.85-4.75,22.55-4.35,16,.84,31.89,8,44.52,17.57,3,2.3,6-2.84,3-5.11-13.76-10.4-30.91-17.5-48.22-18.4a47.59,47.59,0,0,0-24.82,5.18c-8.31,4.42-14.38,12.07-18.2,20.53-1.56,3.44,3.53,6.45,5.1,3Z"/><path class="cls-5" d="M288.58,465.24c7.09-11,18.37-18.57,31.74-18.49,3.81,0,3.81-5.89,0-5.91-15.48-.1-28.64,8.65-36.84,21.42-2.07,3.21,3,6.17,5.1,3Z"/><path class="cls-5" d="M328.61,407.69c5.35-.91,10.25-4,14.49-7.27a75.73,75.73,0,0,0,14.78-15.14c6.8-9.14,13.27-23.48,4.19-33.3-2.59-2.81-6.76,1.38-4.18,4.18,7.16,7.75-.58,20-5.55,26.73-5.83,7.83-15.2,17.39-25.3,19.1-3.75.63-2.15,6.33,1.57,5.7Z"/><path class="cls-5" d="M356.08,387.87c12.22,4.42,21.64,14.28,27.65,25.53A126.21,126.21,0,0,1,390.44,428c1.49,3.94,3.67,9.23,2.53,13.51-1,3.68,4.72,5.25,5.7,1.57,1.32-5-.36-10.42-2-15.11a121.64,121.64,0,0,0-7.55-16.9c-6.75-12.94-17.58-23.84-31.5-28.87-3.6-1.3-5.13,4.42-1.57,5.7Z"/><path class="cls-5" d="M382.5,353.06c6.25-8.18,19.33-17.63,29.78-11.66,3.32,1.89,6.29-3.21,3-5.1-13.62-7.78-29.61,2.95-37.87,13.78-2.31,3,2.83,6,5.1,3Z"/><g class="cls-7"><path class="cls-8" d="M226.53,371.76c-7.22-6.27-12.05-9.69-22.07-10.3-14.47-.89-19,5-20.69,17.49-1.46,11-9.85,20.82-21.4,24.39-29.08,9-39-41.14-45.78-58.45-12,1.67-16.2-20.79-16.43-29.28,0-.65-1-1.28-1-1.94-.07-2.3-.77-3.92-.82-5.89-.9-9.17-1.8-18.35-.4-27.58,1.68-11.21,8.67-19.93,14.65-29.62.35-.54.7-1.06,1.07-1.57-11.28,2.37-25.45,8.79-32.28,25.72,0,0-39.37,1.7-28.5,40.16,0,0-28.62,10.61-11.35,43,0,0-8.83,38.33,30.43,57.66.6.29,1.16,9.58,1.35,10.52a61.81,61.81,0,0,0,9.63,23.16,46,46,0,0,0,26.21,18.08c16.27,4.27,32.41-1.52,48.47.65,11.88,1.6,23.23,2.45,35.37,3.28,16.67,1.14,40.31-.33,56.06,5.35-11.36-6.27-19.26-16.45-28.7-24.93,1.3,1.17,2.39,5.09,2.62,6.89a6.69,6.69,0,0,1-3.48,6.54c-6.07,3-13.86,4-20.55,3.9-12.69-.17-21.52-5.8-32.23-11.37-5.05-2.62-10.44-3.8-14.69-7.84-.82-.79-7.55-11.36-6.42-11.38,15.43-.28,31.84-17,39.85-29,8.86-13.33.79-29.89,17.63-36.86C209.63,369.77,219.75,369.21,226.53,371.76Z"/></g><path class="cls-9" d="M402.22,351.28c6.16,14.34,3.13,31.27-10.59,39.9-2.15,1.35-.17,4.76,2,3.4,15.69-9.87,19-28.94,12-45.29-1-2.33-4.4-.32-3.41,2Z"/><path class="cls-9" d="M196.48,247.46c3.07,2.61,3.59,7.3,3.85,11.08a31.78,31.78,0,0,1-.78,10.56c-.69,2.45,3.11,3.49,3.8,1a37.41,37.41,0,0,0,.8-13.13c-.38-4.33-1.41-9.39-4.89-12.34-1.92-1.64-4.72,1.14-2.78,2.78Z"/><path class="cls-9" d="M269.6,277.43c5.15-2.74,10.13-5.26,16.11-5.11,2.54.06,2.53-3.88,0-3.94-6.68-.16-12.34,2.58-18.1,5.65-2.24,1.19-.25,4.59,2,3.4Z"/><path class="cls-9" d="M386.87,446.5l.49,0a2,2,0,1,0,0-3.93h-.49a2,2,0,0,0,0,3.94Z"/><path class="cls-9" d="M400.9,421c5.37-4.88,6.65-12.41,5.47-19.29-.43-2.5-4.23-1.44-3.8,1,.95,5.54-.17,11.57-4.45,15.46-1.89,1.71.91,4.49,2.78,2.79Z"/><path class="cls-9" d="M339.05,478.68l.51.48a2,2,0,0,0,2.78-2.79l-.5-.48a2,2,0,1,0-2.79,2.79Z"/><path class="cls-9" d="M365.91,269.62c8,2.21,14.87,9.32,15.33,17.86.13,2.52,4.08,2.54,3.94,0-.56-10.29-8.45-19-18.23-21.66-2.45-.67-3.49,3.13-1,3.8Z"/><path class="cls-9" d="M359.49,267.91c2.53,0,2.53-3.94,0-3.94s-2.54,3.94,0,3.94Z"/><path class="cls-10" d="M254.62,277.26c-.57.73-3.45-1.83-3.73-1.06-9.72-9.45-35.66-10.45-43.83,3.51.33-4.6,3.06-8.81,3.49-13.4.5-5.41-1.39-11.2-2.68-16.39,3.71,1.28,8.09,8.26,9.72,11.84-.24-.55,19.14-2.62,20.72-2.63,11.47-.07,19.69,1.78,27.19,10.77C262.22,270,256.93,274.29,254.62,277.26Z"/><path class="cls-10" d="M363.25,374.2s36.27,27.14,32.62,56.79c0,0-1.15-25.09-26.67-39.69l-15.79-5Z"/><path class="cls-9" d="M190,454.42c5-3.44,11.42-3.87,17.14-2.27,2.45.69,3.49-3.11,1-3.8-6.66-1.86-14.38-1.34-20.17,2.67-2.08,1.43-.11,4.85,2,3.4Z"/><path class="cls-9" d="M211.73,453.54c0,.16,0,.33,0,.49a2,2,0,0,0,3.94,0l0-.49a2,2,0,1,0-3.94,0Z"/><path class="cls-9" d="M256.34,456.41c2.72-5.11,6.93-10,12.79-11.29,2.47-.57,1.42-4.36-1.05-3.8-6.81,1.56-12,7.13-15.14,13.1-1.19,2.24,2.21,4.23,3.4,2Z"/><path class="cls-9" d="M276,443.52h.49a2,2,0,1,0,0-3.94H276a2,2,0,0,0,0,3.94Z"/><path class="cls-9" d="M81.66,434.32c2.37,18,19,29.73,36.26,31.61,2.52.27,2.49-3.67,0-3.94-14.83-1.62-30.26-12-32.32-27.67-.32-2.48-4.27-2.51-3.94,0Z"/><path class="cls-9" d="M125.3,465.73a2.23,2.23,0,0,0,2.45-2.47,2,2,0,0,0-3.94,0c0,.1,0,.21,0,.32,0-.18,0-.35.07-.53,0,0,0,.05,0,.08l.19-.48v0l.31-.4,0,0,.4-.31,0,0,.47-.2-.12,0,.52-.07h-.27a2,2,0,0,0,0,3.94Z"/><path class="cls-10" d="M125,283s34.32-6.33,45.2-23.37C170.15,259.61,159.86,298.8,125,283Z"/><path class="cls-8" d="M239.48,218.65s13.46,34.8-.88,103.35c0,0,25.8-30.44,11.94-107.58Z"/><path class="cls-11" d="M167.72,452.87c-9.74-.15-10.79-12.95-.89-21.7,5.65-5,11.86-9.71,18.95-12.44,18.72-7.2,52.08-1.33,62.37,17.54,5.61,10.29-7,15.72-15.24,14.42-9.56-1.52-17.52-8.32-27.21-9.52-12.95-1.61-18.43,3.75-29.22,9.26A19,19,0,0,1,167.72,452.87Z"/><path class="cls-12" d="M226.11,419.5c-13.42-4.72-29.38-5-40.33-.77a48.68,48.68,0,0,0-9.41,5C193.11,427.64,210,425,226.11,419.5Z"/><path class="cls-13" d="M168.64,452.85a20.29,20.29,0,0,0,7.84-2.42c10.79-5.51,16.27-10.87,29.22-9.26,9.69,1.2,17.65,8,27.21,9.52,8.21,1.3,20.85-4.13,15.24-14.42a31,31,0,0,0-8.76-9.85h-.29C214,427.23,186,434.11,168.64,452.85Z"/><path class="cls-14" d="M142.84,319.87c1.93-5.11,1.66-10.08-2.93-13.3-6.42-4.51-13,9.62-16.78,13.32-5.85,5.73-13.53,9.58-21.26,12.13-11.27,3.71-15.22,12.29-1,12.59,7.75.16,17-2.83,24.21-5.58C130.72,336.91,139.7,328.2,142.84,319.87Z"/><path class="cls-14" d="M256.35,307.75a7.09,7.09,0,0,1,9.14-.94c5.53,3.85,6.86,10.88,13.53,14.41,6.22,3.29,13.54,3.71,20.44,3.83,3.71.07,9.33-1.75,12.7-.77,9,2.64-2.23,11.65-6,13.1-5.95,2.25-13.79,1.89-19.72,1-8.57-1.22-16.92-4.61-23.26-10.63-3.66-3.46-7.92-9.38-8.52-14.54A6.71,6.71,0,0,1,256.35,307.75Z"/><path class="cls-14" d="M178.68,373.84c.54,29.06-22.41,53.6-51.56,54.59s-53.6-22.74-54.59-51.55c-1-29.06,22.75-53.61,51.56-54.59,29-1,53.61,22.74,54.59,51.55.19,5.61,8.92,5.63,8.73,0-1-29.57-23-55.15-52.48-59.57-29.74-4.46-58.39,13.45-68.06,41.76s3.82,60.06,29.84,74c26.44,14.14,60.09,6.36,78.14-17.34a62.18,62.18,0,0,0,12.56-38.84C187.3,368.22,178.57,368.21,178.68,373.84Z"/><g class="cls-15"><path class="cls-12" d="M75.64,383.34c-.79-29.88,22.4-54.73,51.8-55.5a53,53,0,0,1,45.73,24.08,53.24,53.24,0,0,0-49.11-30c-29.4.78-52.59,25.63-51.8,55.5A54.45,54.45,0,0,0,81.2,406,54.38,54.38,0,0,1,75.64,383.34Z"/></g><path class="cls-14" d="M335,369.71a53.66,53.66,0,0,1-51.55,54.59c-29.06,1-53.61-22.74-54.59-51.56-1-29.05,22.74-53.61,51.55-54.59,29.05-1,53.61,22.74,54.59,51.56.19,5.61,8.92,5.63,8.73,0-1-29.57-23-55.16-52.48-59.57-29.73-4.46-58.38,13.45-68.05,41.75S227,412,253,425.88c26.44,14.15,60.09,6.36,78.14-17.34a62.13,62.13,0,0,0,12.56-38.83C343.61,364.09,334.88,364.07,335,369.71Z"/><path class="cls-14" d="M186.81,376a22.45,22.45,0,0,1,7.55-9.66c9-6.42,19.62-.48,27.25,6.09,4.24,3.65,10.44-2.5,6.17-6.18-10-8.62-23.37-15.54-36.16-8.49a29.83,29.83,0,0,0-12.35,13.84c-.93,2.19-.67,4.65,1.57,6,1.85,1.08,5,.62,6-1.57Z"/><g class="cls-15"><path class="cls-12" d="M232.09,378.47c-.79-29.87,22.28-54.71,51.52-55.49a52.68,52.68,0,0,1,45.48,24.09,52.92,52.92,0,0,0-48.84-30c-29.24.77-52.31,25.62-51.52,55.49a54.71,54.71,0,0,0,8.9,28.6A54.87,54.87,0,0,1,232.09,378.47Z"/></g><path class="cls-4" d="M156.55,398.51c14.85-24.78-4.7-60.11-35.09-58.09C93.52,342.28,82.73,380.13,99,399.83,113.67,417.49,143.7,420,156.55,398.51Z"/><path class="cls-5" d="M128.94,414.66h0a40,40,0,0,1-30.53-14.31c-8.53-10.3-10.28-26.45-4.37-40.2,5.28-12.25,15.25-19.74,27.37-20.55.84-.05,1.7-.08,2.54-.08,13.58,0,25.93,7.47,33,20s7.28,27.76.28,39.43C151.26,408.93,141,414.66,128.94,414.66Zm-5-73.5c-.81,0-1.62,0-2.43.08-11.48.76-21,7.89-26,19.56-5.68,13.2-4,28.67,4.12,38.5A38.37,38.37,0,0,0,128.94,413c11.41,0,21.22-5.44,26.9-14.93,6.69-11.16,6.58-25.63-.3-37.77S136.93,341.16,124,341.16Z"/><path class="cls-4" d="M315.63,393.7c14.37-23.21-4.49-56.26-33.86-54.35-27,1.76-37.46,37.2-21.72,55.63C274.17,411.5,303.19,413.78,315.63,393.7Z"/><path class="cls-5" d="M288.91,408.89h0a39.15,39.15,0,0,1-29.48-13.38c-8.05-9.42-9.86-24.3-4.49-37,4.95-11.72,15-19.19,26.78-20,.82,0,1.66-.08,2.48-.08,13.45,0,25.52,7.26,32.29,19.42,6.61,11.86,6.55,25.42-.16,36.26C310.52,403.51,300.53,408.89,288.91,408.89Zm-4.71-68.8c-.79,0-1.58,0-2.38.08-11.35.74-20.6,7.65-25.37,19-5.13,12.16-3.43,26.35,4.23,35.31a37.48,37.48,0,0,0,28.23,12.81c11,0,20.52-5.1,26-14,6.4-10.33,6.44-23.27.13-34.61C308.58,347,297,340.09,284.2,340.09Z"/><path class="cls-14" d="M75.72,351.31a66.45,66.45,0,0,0-16.06-18.16c-4.07-3.12-9.41-5.49-14.63-4.89-7.27.84-12.23,6.19-15.56,12.36-3,5.57,5.46,10.52,8.48,4.95,1.13-2.09,2.66-4.65,4.38-6A6.33,6.33,0,0,1,46.46,338a10.82,10.82,0,0,1,4.16,1.07,23.75,23.75,0,0,1,5.23,3.56,53.32,53.32,0,0,1,11.39,13.65c3.28,5.4,11.78.47,8.48-4.95Z"/><path class="cls-14" d="M341.65,363.63a335.54,335.54,0,0,1,27.9-27.4c6.95-6.09,13.9-11.71,22.08-16.22,3.37-1.86,5.05-2.73,9-3.43,1.2-.22-1.12.11.06,0,.33,0,.66,0,1,0s.63,0,1,0c1.11.07-1.17-.21-.11,0,.29.05.57.14.86.22,1,.31-1.05-.5-.11-.05a6.29,6.29,0,0,1,.75.43c.69.43-.84-.78.14.15,1.13,1.08-.07-.3.58.75.18.29.33.6.49.91.54,1.1-.37-1,.06.21,2.13,5.91,11.62,3.36,9.47-2.61-12-33.28-66.75,25.86-77.28,37.07-.94,1-1.88,2-2.8,3-4.23,4.68,2.69,11.65,6.94,6.94Z"/><path class="cls-12" d="M120.48,380.3c6.44-.81,12.92-1.36,19.37-2.08,4.93-.55,10.15-1.71,15.11-.92-7.69,5.41-18,7.26-27,9.38-9.68,2.29-26,7.56-34.51-.14,2.91-2.42,8.6-3,12.28-3.81C110.61,381.67,115.54,380.92,120.48,380.3Z"/><path class="cls-3" d="M120.48,381.9c5.64-.7,11.3-1.23,17-1.82,5.82-.61,11.66-1.95,17.53-1.18l-.81-3c-9.13,6.21-20.5,7.68-31,10.31-8.65,2.17-20.92,5.69-28.55-.81-.11.83-.22,1.67-.32,2.5,3-2.2,6.79-2.67,10.32-3.33,5.29-1,10.53-2,15.88-2.69,2-.26,2-3.46,0-3.2-5.35.69-10.64,1.55-15.92,2.65-4.06.85-8.47,1.26-11.9,3.82a1.62,1.62,0,0,0-.32,2.5c8.09,6.89,19.83,4.47,29.25,2.23,11.48-2.72,24.23-4.47,34.17-11.22a1.61,1.61,0,0,0-.8-3c-5.48-.71-10.89.46-16.32,1.06-6,.67-12.12,1.2-18.16,1.94C118.46,379,118.44,382.15,120.48,381.9Z"/><path class="cls-12" d="M283.37,376.25c7,.74,14,1.82,21,2.69,4.62.58,13,.33,15.94,4.92-8.92,3.44-19.54,4-29.07,2.91-7.54-.83-15.82-1.78-23.14-3.76-3.66-1-12-2.83-13.86-6.48C263.14,373.77,274.29,375.28,283.37,376.25Z"/><path class="cls-3" d="M283.37,377.84c7.23.79,14.42,2,21.64,2.77,4.41.5,11,0,13.94,4.05l.95-2.34c-11.58,4.3-23.56,3.53-35.58,2.05A136.91,136.91,0,0,1,266.81,381c-3.53-.92-9.15-1.89-11.17-5.29l-1,2.34c9.32-2.71,19.22-1.24,28.69-.23,2.05.22,2-3,0-3.19-9.77-1-19.92-2.46-29.54.35a1.61,1.61,0,0,0-1,2.34c2.09,3.51,6.58,4.87,10.26,6a120.11,120.11,0,0,0,18.4,3.87c13.13,1.84,26.53,2.92,39.21-1.79a1.61,1.61,0,0,0,.95-2.35c-3.2-4.4-8.82-4.95-13.86-5.39-8.19-.7-16.3-2.12-24.47-3C281.33,374.43,281.35,377.62,283.37,377.84Z"/><path class="cls-10" d="M168.36,376.57a53.87,53.87,0,0,1-.46,19.57c-1.42,6.3-5.16,9.21-10.13,13-11.39,8.62-25.46,4-38.43,5,3.59-.29,6.74,1.06,10.41.25,11.09-2.46,20.9-11.79,24.82-22.29,1.4-3.74,2.33-10.31-.36-13.74-2.82-3.59-6.66-2.35-10.28-1.8,4.61-12.44-5.25-33.85-19.17-34.64,14.15-7.18,28.14,4.87,36.4,15.08C165.89,362.83,167.22,369.3,168.36,376.57Z"/><path class="cls-10" d="M298,349.29c-3.59-5.29-9-9.06-15.29-8.45,8.93-.86,18.54-1.46,26.05,3.93s13.82,13.41,15.8,22.48c2.32,10.6,1.47,22.37-4.27,31.71-8.58,13.94-38.15,21.86-46.42,4.34,10.42.29,26.1,1,34-8.23,2.16-2.5,4-7.1,2.62-10.47-2.69-6.57-12.76-6.44-18.49-7.7,4-2.21,8.81-4.14,10.06-8.95C303.55,362.31,301.81,354.93,298,349.29Z"/><path class="cls-12" d="M95.37,368.15s1.14-20.78,26.44-25.27C121.81,342.88,101.3,352.32,95.37,368.15Z"/><path class="cls-12" d="M282.78,342.86s-20.5,9.44-26.44,25.27c0,0,1.15-20.79,26.44-25.27"/><path class="cls-16" d="M258.71,377.75c20.4,8.6,78.68-41.31,45.14-44.83C284.11,330.85,243.74,371.44,258.71,377.75Z"/><path class="cls-3" d="M113.67,387.64a8.9,8.9,0,0,0,2.73-.49c2.48-.91,7.13-8.63,8.11-8.65-1.41,0-20,5.72-20,5.81C106.39,386.49,110.36,387.75,113.67,387.64Z"/><path class="cls-3" d="M304.51,380.25a37.86,37.86,0,0,0-9.17-2.49c-1.67-.23-9.4.67-10.27-.94,2.3,4.22,5.1,7.59,10,8A9.56,9.56,0,0,0,304.51,380.25Z"/><path class="cls-16" d="M112.91,384.29c20.41,8.6,78.68-41.31,45.15-44.83C138.31,337.39,98,378,112.91,384.29Z"/><path class="cls-10" d="M395.68,447.05c-8,10.36-19.26,7.17-30.07,5.07-12.5-2.44-25.86-1-37.87,3.21,1.88-4,4.5-7.35,5.44-11.64,16.69-.72,47.37-10.9,40.44-33.14,18-12.16,28.78-28.48,24-51.48-4-19.17-19-17.61-34.34-18,6.25-10.79,18.16-15.45,25.39-24.27,5.87-7.16,4.71-27.1,1.69-36.21,3.48,10.74,9.64,21.66,9.54,33.29,10.83-1.72,16.52,20.05,13.43,27.48,9.25,7,4,30.07,1.76,39.13-1.21,4.9-4,9.22-5.33,13.94-1.74,6.05-.65,11.67-1.48,18.44C407,423.59,402.45,438.34,395.68,447.05Z"/><path class="cls-17" d="M306,228.57l-.06-.22c-6,16.26-14.62,34-13.9,51.72.48,11.82,5,19.69,16.81,18.74,7.79-.63,12.81-3.29,15.67-10.64C332,269,310.71,246,306,228.57Z"/><path class="cls-18" d="M308.33,227.91l-.06-.22c-.69-2.49-3.93-2.19-4.74,0-6.46,17.39-15.19,35.08-13.89,54.12.39,5.81,2,12,6.53,16,4.81,4.17,11.61,4,17.49,2.8,14.58-3,16.58-19.73,13.2-31.74-4-14.3-14-26.06-18.32-40.2l-.21-.72c-.86-3-5.61-1.75-4.74,1.31,3.41,12.06,11,22.54,16,34,4.17,9.56,7.94,27.23-5,32-4.72,1.75-11.37,2.17-15.4-1.32-4.36-3.77-4.72-10.77-4.76-16.07-.13-17.05,8.06-33.19,13.85-48.81h-4.74l.06.22C304.43,232.28,309.18,231,308.33,227.91Z"/><path class="cls-3" d="M364.25,455.94c1.79-5.68,1.1-12.28-3.81-15.7-5.85-4.07-13.73-5.46-20.7-5.86-15.16-.87-29.41,5.88-44.17,8-3.51.51-8.63.62-11.72,2.65.17-2-.29-5.64-2.05-7.17-3.77-3.28-7.05,2.21-6.23,5.65-.52-2.71-2.13-12.54-5.7-12s-3,7.17-3.09,9.47c-1.3-3.81-4.61-14.79-10.66-12.39-5.75,2.27-1.89,10.61-1.45,14.52-1.92-1.54-4.57-6.52-7.94-4.45-3.58,2.19.49,9.7,1.87,12.27-2.68-2.74-9-4.13-9.12,1.47-.08,5.44,7.5,12.7,10.5,16.93,3.92,5.53,8.64,8.07,15.42,7.92a328.37,328.37,0,0,0,35.26-2.66c11.32-1.5,23.56-2.14,35.1-4.26,7.39-1.35,20-1.91,25.22-8.25A18.57,18.57,0,0,0,364.25,455.94Z"/><path class="cls-3" d="M36.77,152.33c4.6-17.54,23.81-26.34,40.81-25,6.62.53,14,3.08,17.42,9.21,4.31,7.81-1,17.48-5.47,23.89a53.21,53.21,0,0,1-14.11,13.39c-5,3.38-11.61,6.83-17.78,5-5.39-1.57-7.7-7.74-6.8-12.8s4.17-9.83,7.66-13.63c6-6.49,18-14.84,26.81-8.8,4.24,2.91,7.22,8.94,4.64,13.76s-8.24,7.56-13.06,9.38a51.93,51.93,0,0,1-18.61,3.4c-3.8,0-9.76-.46-11.86-4-2.59-4.36,3.85-10.92,6.68-13.79A40.62,40.62,0,0,1,65,143.44a43.18,43.18,0,0,1,17.12-3.73c5.52-.09,11.37,1.15,15.45,5.08s4.46,9.23,2.74,14.22c-3.8,11-15.88,19.85-26.27,24-5,2-10.12,3-15.21.76-5.33-2.32-8.18-7.09-8.29-12.79-.23-12.26,10-23.77,20.54-28.63,5-2.32,10.9-2.09,15,1.82C90.07,148,91,153.84,90.57,159c-1,11.7-10.09,20.56-20.18,25.27-2.87,1.34-8.23,3.53-11.08,1.05-3.65-3.17-.82-11.41,1-14.79,4.21-7.67,12.12-1,14.71,4.35,1.08,2.24,1.61,5.35-.93,6.71-2.24,1.2-6.58.84-8.71-.6,0,0-.11.11,0-.37A7.55,7.55,0,0,1,67,178.88a21.71,21.71,0,0,1,6.55-3.68,17.76,17.76,0,0,1,7.32-1.42c1.86.11,2.49.89,2.37,2.68-.14,2.17-1.48,4.37-2.54,6.21-.89,1.53-4.68,7.93-5.88,7.67.21,0-.32-1.41-.42-1.91a21.1,21.1,0,0,1-.23-3.46,46,46,0,0,1,.19-4.69l-3.61.49c.42,1.75,2.85,3.21,4,4.47,3.3,3.6,3.7,8,1.58,12.37-1,2.11,2,3.95,3.17,1.85,1.67-3,6.81-11.43,11.17-7.2,3.89,3.77.13,10.35-2.8,13.26-1.56,1.55.41,3.74,2.23,2.89,2.19-1,4.52-1.35,6.43-2.9l-3.07-.81c1.15,4.91-1.68,8.84-5.3,11.85-1.82,1.52.79,4.11,2.6,2.6,4.69-3.9,7.69-9.24,6.25-15.43a1.87,1.87,0,0,0-3.08-.81c-1.48,1.2-4,1.51-5.69,2.32.74,1,1.49,1.93,2.23,2.89,4.75-4.71,7.81-12.79,2.8-18.46-6.14-6.95-14.22,3-16.94,8l3.17,1.85c2.14-4.37,2.57-8.75.42-13.2a17.9,17.9,0,0,0-3.27-4.37c-.51-.53-1-1-1.58-1.51-.27-.25-.92-1.2-.77-.59-.51-2.14-3.43-1.46-3.61.49-.32,3.33-1.06,16.37,5.62,13.35,4-1.81,7-7.71,8.84-11.48,1.22-2.46,2.44-5.65,1.44-8.4-1.87-5.08-8.81-3.8-12.75-2.54-4.28,1.37-10.14,3.95-11.93,8.44-2.48,6.21,9,6.54,12.16,5.84,7.68-1.73,5.85-10.5,2.47-15.27-3.84-5.4-11.21-9.62-17-4.55-5.42,4.71-9.11,20.47-.39,23.76,7.72,2.91,17.73-3.83,23.37-8.46,8.82-7.22,14-19.76,11-31-2.79-10.59-13.14-15.11-23.08-11.28-11,4.22-19.91,14.82-22.75,26.11-2.72,10.78,2.59,21.47,14,23.75,10.24,2.05,21.62-5.31,29.11-11.41,7.73-6.31,16.22-16.47,13.88-27.2-2.47-11.31-15.34-14.48-25.28-13.8a48.53,48.53,0,0,0-16.18,4.1c-4.59,2-8.28,5.24-11.86,8.69-4,3.9-9.79,9.9-9,16.11,1.42,11.33,19.83,9.13,27.31,7.63,9.44-1.91,25.38-7.62,25.06-19.62-.18-6.56-6-13.13-12.18-14.7-9.78-2.5-20.24,4.8-26.59,11.47s-12,17-7.17,25.83c6.8,12.51,21.75,6.28,30.56-.06,12.12-8.73,30.75-31.77,15-45.67-8.82-7.8-22.92-7.51-33.57-4.55-12.84,3.58-24.07,12.76-27.54,26-.6,2.29,3,3.27,3.55,1Z"/><path class="cls-3" d="M185.14,99.76c.84-5,7.88-3.07,11.17-2.05a35.44,35.44,0,0,1,15.2,9.38c8.17,8.8,3.3,22.54-4.57,29.52-7.49,6.63-19.77,9.29-27.2,1.22-5.51-6-6.62-15.12.28-20.32,9.57-7.2,35.81-8.27,36.37,8.35.29,8.86-5.11,18-13.78,20.47a22.68,22.68,0,0,1-20.43-4.58c-13.61-12.13,18.93-25.2,28.78-18.88,5,3.23,5,10.54,3.78,15.66-1.46,6.25-5.19,12.45-10.87,15.66-6.31,3.57-15.21.89-19.05-5.16-4.32-6.83,6.47-11.83,11.71-11.95,3.63-.09,6.76,1.68,8,5.18,2.21,6.45-3.1,11.74-8.11,15-2.51,1.63-5.78,3.1-8.84,2.6-2.21-.36-2.26-1.31-1.18-3,2.46-3.9,8.09-6.91,12.63-7.14,3.24-.15,7.7,3.1,8.92,6.08,1.07,2.62-2.43,4.33-4.29,5.22a39.18,39.18,0,0,1-20.22,3.2c-1.93-.22-2.34,2.54-.93,3.43,1.87,1.18,3.9,2,5.77,3.22s3.85-1.92,1.86-3.18-3.9-2-5.77-3.22l-.93,3.43c8.13.95,19.22-.78,25.74-6,8.16-6.53-4.26-16.47-11.25-15.78-4.8.47-9.42,3.23-12.79,6.55-2.38,2.33-4.69,6.31-1.87,9.19,3.68,3.77,10.57,1.11,14.3-1,4.92-2.76,10.16-7.78,11.14-13.56,1.44-8.54-5.88-14.64-13.86-13.77-6.5.7-14.47,5.31-14.56,12.64-.09,7.8,9.9,13,16.61,13.37s12.52-3.88,16.36-9c6.84-9.15,9.95-27.72-3.73-32.38-8.5-2.89-19.62,1.51-26.71,6.05-5.81,3.71-9.85,10.15-6,16.75,3.49,6,11.14,8.92,17.71,9.66a22.21,22.21,0,0,0,20.68-8.84c4.67-6.39,7-17,2.51-24-4.06-6.3-12.2-8.52-19.25-8.84-7.54-.34-15.69,1.61-21.58,6.47-6.12,5.06-6.51,12.8-3.24,19.6,4.61,9.58,14.36,13.39,24.44,10.6a30,30,0,0,0,20.58-20.88,24.08,24.08,0,0,0-1.61-16c-2.33-4.77-7-8.19-11.42-10.81-5.54-3.24-22.14-10-24,.93-.39,2.32,3.16,3.31,3.55,1Z"/><path class="cls-3" d="M290.73,117.85c4.78-10,19.21.88,23.56,5.83,3.29,3.74,5.86,8.89,4.68,13.95-1.06,4.51-4.66,8.18-8.49,10.51-7.68,4.68-18.14,5.11-26.42,1.9-3.35-1.3-6.65-3.73-7.93-7.19-1.58-4.25.45-8.72,2.75-12.27,5.91-9.11,18.78-9.91,27-3.48,3.51,2.76,5.88,7,5.24,11.54-.87,6.16-6.53,11.46-11.73,14.25a19.07,19.07,0,0,1-17.7-.33c-6-3.42-4.17-9.11.13-13.13,7.5-7,19.46-6.39,26.88.41,2.57,2.37,4.54,5.8,3.5,9.35-1.46,5-8.28,7-12.64,8.16-5.22,1.34-20,3.74-17.06-6.12,1.84-6.2,8.72-12.07,15.19-12.54a9.69,9.69,0,0,1,9,4.85c1.89,3.48-2.44,9.81-4.21,12.49-2.78,4.22-9,12.13-14.91,11.23-7-1.07,0-15.21,6-14.26,4.64.72,6.09,7.16,6.1,11,0,7.4-5.24,13.16-11.79,15.89l2.07,2.7c1.35-2.63,2.68-4.84,5.61-5.85l-2.26-2.26c-2.91,10.32-16.83,4.82-21,14.29-.94,2.15,2.22,4,3.17,1.85,2.09-4.76,7.35-4.75,11.77-5.87a12.61,12.61,0,0,0,9.58-9.29,1.85,1.85,0,0,0-2.26-2.26c-3.9,1.33-6,4-7.8,7.53-.65,1.27.45,3.38,2.07,2.7,9.52-3.95,15.72-12.41,14.22-22.94-1-6.86-7.09-13.91-14.36-10-4.47,2.43-7.48,8-7.82,13-.36,5.32,4.66,8.11,9.32,7.29S299,166,302,162.56a37.34,37.34,0,0,0,7.9-13.39c1.27-4.08.58-7.39-2.43-10.4a13.15,13.15,0,0,0-9.8-3.75c-7.13.27-13.69,5.72-17.16,11.65-3.25,5.56-2.92,12.41,3.8,14.86,4.76,1.73,10.55.62,15.32-.42,5.12-1.12,10.83-3.19,14.2-7.44,5.39-6.78.42-14.75-5.68-18.88a23.61,23.61,0,0,0-26.57.11c-4.41,3.13-8.3,7.78-7.5,13.48.66,4.73,5.56,7.69,9.64,9.08,11.61,4,24.91-3.15,29.76-14.06,4-9-1.43-17.82-9.62-21.82-9-4.4-20.09-2.67-26.64,5.09-5.49,6.5-7.69,16-1.21,22.53,6,6,16,7.23,23.93,6.21,13.7-1.74,27.89-13.36,21-28.22-3.24-7-10.1-12.56-17.15-15.45-5.84-2.4-13.25-2.1-16.29,4.25-1,2.13,2.16,4,3.18,1.86Z"/></g></g></svg>